<svg width="503" height="393" viewBox="0 0 503 393" fill="none" xmlns="http://www.w3.org/2000/svg">
<g clip-path="url(#clip0_15_8)">
<path d="M326.423 380.849C340.932 376.019 353.95 371.084 369.61 361.717C385.762 352.056 457.512 306.079 466.842 226.507C469.287 204.699 467.258 182.585 460.896 161.693C458.012 152.688 452.03 134.602 436.932 116.715C418.45 94.8065 397.36 86.3148 384.994 81.5127C358.976 71.4046 337.155 71.9371 326.762 72.2984C315.548 72.6883 295.753 73.5632 273.253 84.0327C258.575 90.8602 249.45 98.6481 236.003 110.287C214.7 128.744 211.896 136.428 174.628 174.54C164.396 185 155.985 193.245 143.146 201.365C134.244 206.995 127.048 210.142 113.771 215.886C81.1371 230.007 71.8455 232.866 61.1669 240.815C40.3991 256.287 41.7442 273.159 40.8514 276.791C38.5296 286.081 37.9921 295.774 39.271 305.29C41.9942 324.375 51.646 336.851 57.6371 344.401C65.8607 354.671 75.8258 363.2 87.0121 369.543C94.7778 373.907 102.821 377.685 111.084 380.849H326.423Z" fill="#0798F2"/>
<path d="M372.487 367.361L372.049 366.531C393.388 353.763 463.743 305.897 473.1 226.047C475.624 203.403 473.518 180.445 466.927 158.75C464.269 150.446 458.044 131.002 442.063 112.064C422.492 88.8705 400.148 80.1911 388.144 75.5285C368.775 68.1033 348.215 64.8488 327.655 65.954C316.562 66.3384 295.914 67.0539 272.081 78.1365L271.724 77.2655C295.713 66.109 317.267 65.3624 327.626 65.004C348.299 63.8919 368.974 67.1657 388.449 74.6352C400.526 79.3261 423.006 88.0584 442.728 111.429C458.83 130.511 465.097 150.084 467.773 158.443C474.405 180.276 476.525 203.378 473.986 226.165C464.577 306.457 393.919 354.537 372.487 367.361Z" fill="#FFE3CB"/>
<path d="M369.867 302.475H144C139.942 302.475 136.653 305.978 136.653 310.3V310.3C136.653 314.621 139.942 318.125 144 318.125H369.867C373.924 318.125 377.214 314.621 377.214 310.3C377.214 305.978 373.924 302.475 369.867 302.475Z" fill="#C38F86"/>
<path d="M136.43 380.849L148.397 318.125H162.303L140.903 380.849H136.43Z" fill="#935B50"/>
<path d="M362.835 318.125L375.738 380.849H369.378L348.455 318.125H362.835Z" fill="#935B50"/>
<path d="M169.68 235.535V228.975L174.608 233.567C174.608 233.567 183.233 229.631 188.161 233.786L194.732 228.975L193.294 236.848C194.025 241.112 194.505 245.422 194.732 249.75C194.732 249.75 227.073 271.647 225.225 302.045C225.225 302.045 225.268 306.187 221.702 313.233C219.788 316.945 217.392 320.351 214.585 323.351C210.823 327.391 207.845 332.181 205.82 337.446C205.82 337.446 200.91 339.48 203.762 330.406C205.15 326.097 207.468 322.195 210.528 319.012C213.867 315.488 218.68 309.508 220.605 302.674H177.894C177.894 302.674 178.792 298.539 180.873 297.858C180.873 297.858 172.555 279.493 170.912 272.057C169.269 264.622 170.912 251.063 170.912 251.063C170.912 251.063 167.421 242.534 169.68 235.535Z" fill="#EDEBEB"/>
<path d="M185.05 238.881C185.31 238.588 185.604 238.331 185.924 238.116C186.224 237.908 186.545 237.737 186.881 237.606C187.521 237.344 188.225 237.318 188.881 237.532C188.287 237.619 187.738 237.92 187.326 238.384C187.133 238.6 186.963 238.838 186.82 239.094C186.683 239.329 186.576 239.582 186.501 239.847C186.47 239.991 186.409 240.125 186.322 240.239C186.235 240.353 186.125 240.445 185.999 240.506C185.874 240.568 185.737 240.598 185.599 240.594C185.46 240.59 185.325 240.553 185.203 240.484C185.081 240.416 184.975 240.318 184.893 240.199C184.812 240.08 184.758 239.943 184.734 239.798C184.711 239.653 184.719 239.504 184.758 239.363C184.797 239.222 184.866 239.092 184.959 238.984L185.05 238.881Z" fill="#070707"/>
<path d="M175.321 239.847C175.247 239.582 175.139 239.329 175.002 239.094C174.859 238.838 174.689 238.6 174.497 238.384C174.084 237.92 173.536 237.619 172.941 237.532C173.597 237.318 174.301 237.344 174.941 237.606C175.277 237.737 175.598 237.908 175.898 238.116C176.219 238.331 176.512 238.588 176.773 238.881L176.86 238.981C176.941 239.074 177.004 239.182 177.045 239.3C177.087 239.418 177.106 239.544 177.102 239.67C177.097 239.796 177.07 239.92 177.021 240.035C176.972 240.149 176.902 240.253 176.815 240.339C176.728 240.425 176.626 240.491 176.515 240.535C176.404 240.579 176.286 240.6 176.168 240.595C176.05 240.59 175.933 240.561 175.826 240.508C175.718 240.456 175.621 240.381 175.541 240.289C175.433 240.164 175.357 240.012 175.321 239.847V239.847Z" fill="#070707"/>
<path d="M182.328 243.388C182.327 243.752 182.191 244.102 181.948 244.359C181.706 244.617 181.377 244.761 181.035 244.761C180.693 244.761 180.364 244.617 180.122 244.359C179.879 244.102 179.743 243.752 179.742 243.388C179.742 242.627 182.328 242.627 182.328 243.388Z" fill="#E2B5B5"/>
<path d="M202.329 238.441L187.464 244.223L187.274 243.339L202.945 241.659L187.382 244.243L187.192 243.359L202.329 238.441Z" fill="#CCC4C4"/>
<path d="M202.946 244.765C200.336 244.926 197.72 244.915 195.112 244.733C192.501 244.591 189.902 244.277 187.328 243.791C189.937 243.628 192.554 243.639 195.162 243.823C197.772 243.966 200.372 244.281 202.946 244.765V244.765Z" fill="#CCC4C4"/>
<path d="M158.855 238.441L173.991 243.359L173.801 244.243L158.239 241.659L173.91 243.339L173.72 244.223L158.855 238.441Z" fill="#CCC4C4"/>
<path d="M158.238 244.765C160.812 244.281 163.411 243.966 166.022 243.823C168.63 243.639 171.246 243.628 173.855 243.791C171.282 244.277 168.682 244.591 166.072 244.733C163.464 244.915 160.847 244.926 158.238 244.765V244.765Z" fill="#CCC4C4"/>
<path d="M181.86 261.004C183.386 261.004 184.622 259.687 184.622 258.062C184.622 256.437 183.386 255.12 181.86 255.12C180.335 255.12 179.098 256.437 179.098 258.062C179.098 259.687 180.335 261.004 181.86 261.004Z" fill="#EADD65"/>
<path d="M180.563 271.729L181.517 278.525L182.55 285.291C182.918 287.539 183.322 289.778 183.807 291.992L184.188 293.647L184.635 295.277C184.783 295.821 184.981 296.341 185.152 296.876C185.336 297.404 185.591 297.888 185.807 298.401L185.92 298.667L185.702 298.779C184.948 299.148 184.258 299.651 183.663 300.266C183.365 300.571 183.143 300.949 183.015 301.367C182.899 301.798 182.922 302.258 183.079 302.674C182.859 302.266 182.781 301.789 182.858 301.326C182.953 300.861 183.154 300.428 183.443 300.065C184.005 299.335 184.7 298.735 185.486 298.299L185.381 298.678C184.303 296.652 183.509 294.47 183.021 292.2C182.492 289.964 182.062 287.709 181.732 285.435C181.398 283.165 181.135 280.886 180.943 278.599C180.74 276.315 180.603 274.024 180.563 271.729Z" fill="#CCC4C4"/>
<path d="M212.597 274.408C211.125 272.925 209.409 271.745 207.534 270.929C205.698 270.091 203.663 269.882 201.711 270.331C199.799 270.88 198.07 271.99 196.719 273.533C195.307 275.013 194.202 276.792 193.475 278.755C192.832 280.733 192.723 282.863 193.16 284.904C193.611 286.967 194.411 288.926 195.519 290.685C197.773 294.246 200.569 297.382 203.792 299.963L204.566 300.594L203.619 300.392C202.366 300.094 201.073 300.03 199.8 300.204C199.165 300.284 198.56 300.538 198.044 300.941C197.536 301.37 197.202 301.99 197.11 302.674C197.158 301.965 197.46 301.303 197.954 300.825C198.473 300.372 199.092 300.069 199.753 299.946C201.06 299.683 202.401 299.676 203.71 299.926L203.536 300.354C200.148 297.864 197.214 294.738 194.877 291.129C193.698 289.297 192.84 287.252 192.347 285.094C191.853 282.893 191.98 280.585 192.712 278.46C193.497 276.391 194.683 274.52 196.193 272.971C197.65 271.345 199.525 270.213 201.584 269.717C203.649 269.301 205.784 269.6 207.676 270.572C209.537 271.493 211.209 272.797 212.597 274.408V274.408Z" fill="#CCC4C4"/>
<path d="M170.912 251.062C171.81 251.692 172.757 252.24 173.741 252.7C174.224 252.943 174.726 253.142 175.216 253.36C175.724 253.532 176.224 253.727 176.735 253.878C178.766 254.509 180.885 254.756 182.997 254.61C183.523 254.595 184.047 254.536 184.564 254.432C185.088 254.373 185.606 254.267 186.114 254.115L187.647 253.687L189.129 253.077L189.875 252.775C190.115 252.654 190.346 252.513 190.583 252.383L192.001 251.588C192.936 251.031 193.796 250.342 194.732 249.75C193.918 250.502 193.099 251.27 192.227 251.964L190.84 252.889C190.607 253.041 190.378 253.204 190.14 253.347L189.396 253.717C188.899 253.964 188.401 254.216 187.893 254.441L186.311 254.952C185.782 255.124 185.241 255.244 184.692 255.312C184.15 255.427 183.6 255.497 183.047 255.519C180.837 255.673 178.621 255.341 176.537 254.543C174.463 253.792 172.552 252.608 170.912 251.062V251.062Z" fill="#E2B5B5"/>
<path d="M233.086 41.7536L81.843 41.5581C77.665 41.5527 74.274 45.1555 74.2689 49.6051L74.1341 167.966C74.129 172.416 77.5118 176.027 81.6898 176.033L232.933 176.228C237.111 176.233 240.502 172.631 240.507 168.181L240.642 49.8201C240.647 45.3705 237.264 41.759 233.086 41.7536Z" fill="#E5E1E5"/>
<path d="M240.631 58.4775L74.2598 58.2626V57.5294L240.631 57.7453V58.4775Z" fill="#8D9AC9"/>
<path d="M83.6757 53.8214C87.6583 53.8214 87.6649 47.2295 83.6757 47.2295C79.6931 47.2295 79.6865 53.8214 83.6757 53.8214Z" fill="#FFBA55"/>
<path d="M93.9914 53.8347C97.974 53.8347 97.9806 47.2428 93.9914 47.2428C90.0088 47.2428 90.0022 53.8347 93.9914 53.8347Z" fill="#F73C4F"/>
<path d="M103.62 53.8471C107.602 53.8471 107.609 47.2552 103.62 47.2552C99.6369 47.2552 99.6303 53.8471 103.62 53.8471Z" fill="#4F66D0"/>
<path d="M189.326 122.496L125.451 122.413V121.68L189.326 121.762V122.496Z" fill="#8D9AC9"/>
<path d="M217.128 99.0374H97.6479V111.33H217.128V99.0374Z" fill="#F7F7F9"/>
<path d="M123.52 92.112C128.75 92.112 128.759 83.4553 123.52 83.4553C118.29 83.4553 118.281 92.112 123.52 92.112Z" fill="#4F66D0"/>
<path d="M137.067 92.112C142.297 92.112 142.306 83.4553 137.067 83.4553C131.837 83.4553 131.828 92.112 137.067 92.112Z" fill="#F73C4F"/>
<path d="M150.614 92.112C155.844 92.112 155.853 83.4553 150.614 83.4553C145.384 83.4553 145.375 92.112 150.614 92.112Z" fill="#FFBA55"/>
<path d="M164.161 92.112C169.391 92.112 169.4 83.4553 164.161 83.4553C158.931 83.4553 158.922 92.112 164.161 92.112Z" fill="#4F66D0"/>
<path d="M177.708 92.112C182.938 92.112 182.947 83.4553 177.708 83.4553C172.478 83.4553 172.47 92.112 177.708 92.112Z" fill="#8B9D36"/>
<path d="M191.255 92.112C196.485 92.112 196.494 83.4553 191.255 83.4553C186.025 83.4553 186.016 92.112 191.255 92.112Z" fill="#F73C4F"/>
<path d="M212.501 105.683C212.685 105.683 212.868 105.644 213.038 105.569C213.209 105.494 213.364 105.384 213.494 105.245C213.624 105.106 213.728 104.941 213.798 104.76C213.869 104.579 213.905 104.384 213.905 104.188V101.697C213.905 101.3 213.757 100.92 213.494 100.64C213.231 100.36 212.874 100.203 212.502 100.203C212.13 100.203 211.774 100.36 211.51 100.64C211.247 100.92 211.1 101.3 211.1 101.697V104.188C211.099 104.384 211.135 104.578 211.206 104.76C211.276 104.941 211.379 105.106 211.509 105.245C211.639 105.384 211.794 105.494 211.964 105.569C212.134 105.644 212.317 105.683 212.501 105.683Z" fill="#4F66D0"/>
<path d="M214.84 103.687V104.076C214.85 104.708 214.641 105.321 214.253 105.8C213.865 106.278 213.325 106.586 212.736 106.667C212.411 106.701 212.082 106.663 211.772 106.554C211.461 106.445 211.176 106.268 210.933 106.034C210.691 105.801 210.497 105.516 210.364 105.198C210.231 104.88 210.162 104.536 210.162 104.188V103.687C210.162 103.622 210.15 103.557 210.127 103.497C210.103 103.437 210.069 103.383 210.026 103.337C209.983 103.291 209.931 103.254 209.875 103.229C209.819 103.205 209.758 103.192 209.697 103.192H209.691C209.63 103.192 209.57 103.205 209.514 103.229C209.457 103.254 209.406 103.291 209.363 103.337C209.32 103.383 209.286 103.437 209.262 103.497C209.239 103.557 209.227 103.622 209.227 103.687V104.188C209.228 105.025 209.512 105.834 210.028 106.467C210.543 107.1 211.254 107.514 212.032 107.635V109.167H211.097C210.973 109.168 210.854 109.221 210.767 109.314C210.679 109.408 210.63 109.535 210.63 109.667C210.63 109.799 210.679 109.925 210.767 110.019C210.854 110.113 210.973 110.165 211.097 110.166H213.903C214.027 110.165 214.145 110.113 214.233 110.019C214.32 109.925 214.369 109.799 214.369 109.667C214.369 109.535 214.32 109.408 214.233 109.314C214.145 109.221 214.027 109.168 213.903 109.167H212.967V107.635C213.746 107.515 214.457 107.1 214.973 106.467C215.488 105.835 215.772 105.025 215.773 104.188V103.687C215.773 103.622 215.761 103.557 215.737 103.497C215.714 103.437 215.68 103.383 215.637 103.337C215.594 103.291 215.542 103.254 215.486 103.229C215.43 103.205 215.369 103.192 215.308 103.192H215.305C215.244 103.192 215.183 103.205 215.127 103.229C215.071 103.254 215.019 103.291 214.976 103.337C214.933 103.383 214.899 103.437 214.876 103.497C214.852 103.557 214.84 103.622 214.84 103.687V103.687Z" fill="#F73C4F"/>
<path d="M110.989 101.925V104.339H113.609V101.925H114.316V107.695H113.609V104.99H110.989V107.695H110.289V101.925H110.989Z" fill="black"/>
<path d="M119.025 105.589C119.048 105.873 119.015 106.158 118.928 106.427C118.84 106.696 118.701 106.943 118.518 107.15C118.335 107.358 118.113 107.522 117.867 107.632C117.62 107.743 117.355 107.796 117.088 107.79C116.83 107.793 116.575 107.739 116.338 107.631C116.101 107.523 115.888 107.364 115.713 107.163C115.537 106.962 115.403 106.725 115.319 106.466C115.234 106.206 115.201 105.931 115.223 105.658C115.199 105.375 115.232 105.09 115.319 104.822C115.406 104.553 115.545 104.307 115.727 104.1C115.909 103.892 116.13 103.728 116.375 103.617C116.621 103.507 116.886 103.452 117.152 103.458C117.411 103.452 117.667 103.505 117.906 103.612C118.144 103.719 118.358 103.878 118.535 104.079C118.711 104.28 118.846 104.518 118.931 104.779C119.015 105.039 119.047 105.315 119.025 105.589ZM115.938 105.633C115.938 106.54 116.429 107.225 117.12 107.225C117.795 107.225 118.301 106.548 118.301 105.615C118.301 104.913 117.972 104.023 117.136 104.023C116.3 104.023 115.938 104.845 115.938 105.633H115.938Z" fill="black"/>
<path d="M120.142 103.552L120.657 105.658C120.769 106.12 120.874 106.548 120.946 106.976H120.97C121.059 106.557 121.187 106.112 121.316 105.666L121.951 103.552H122.545L123.148 105.624C123.292 106.12 123.405 106.557 123.494 106.976H123.518C123.593 106.523 123.693 106.074 123.816 105.632L124.37 103.552H125.069L123.816 107.695H123.172L122.577 105.718C122.44 105.271 122.325 104.816 122.231 104.357H122.216C122.123 104.82 122.004 105.277 121.862 105.726L121.235 107.695H120.592L119.418 103.552L120.142 103.552Z" fill="black"/>
<path d="M128.331 102.362V103.552H129.344V104.126H128.331V106.36C128.331 106.874 128.467 107.165 128.862 107.165C129 107.167 129.137 107.15 129.271 107.113L129.304 107.678C129.102 107.753 128.89 107.788 128.677 107.781C128.535 107.79 128.394 107.766 128.262 107.712C128.13 107.657 128.011 107.573 127.913 107.464C127.697 107.154 127.6 106.769 127.639 106.386V104.126H127.037V103.552H127.639V102.559L128.331 102.362Z" fill="black"/>
<path d="M133.61 105.589C133.633 105.873 133.6 106.158 133.513 106.427C133.425 106.696 133.286 106.943 133.103 107.15C132.92 107.358 132.698 107.522 132.452 107.632C132.205 107.743 131.94 107.796 131.673 107.79C131.415 107.793 131.16 107.739 130.923 107.631C130.686 107.523 130.473 107.364 130.298 107.163C130.122 106.962 129.988 106.725 129.904 106.466C129.819 106.206 129.786 105.931 129.808 105.658C129.784 105.375 129.817 105.09 129.904 104.822C129.991 104.553 130.13 104.307 130.312 104.1C130.494 103.892 130.715 103.728 130.96 103.617C131.206 103.506 131.471 103.452 131.737 103.458C131.996 103.452 132.252 103.505 132.491 103.612C132.729 103.719 132.943 103.878 133.12 104.079C133.296 104.28 133.431 104.518 133.516 104.779C133.6 105.039 133.632 105.315 133.61 105.589V105.589ZM130.523 105.633C130.523 106.54 131.014 107.225 131.705 107.225C132.38 107.225 132.886 106.548 132.886 105.615C132.886 104.913 132.557 104.023 131.721 104.023C130.885 104.023 130.523 104.845 130.523 105.633H130.523Z" fill="black"/>
<path d="M137.384 100.201H136.367V110.166H137.384V100.201Z" fill="black"/>
<path d="M101.017 106.269C103.176 108.358 106.227 104.787 104.064 102.695C101.904 100.607 98.8535 104.178 101.017 106.269Z" fill="#E5E1E5"/>
<path d="M106.494 108.707C106.4 108.707 106.31 108.67 106.24 108.603L103.908 106.348C103.871 106.312 103.841 106.27 103.82 106.222C103.799 106.174 103.787 106.122 103.784 106.07C103.782 106.017 103.789 105.964 103.806 105.914C103.823 105.864 103.848 105.819 103.882 105.78C103.915 105.74 103.955 105.709 104 105.686C104.045 105.663 104.093 105.651 104.143 105.648C104.193 105.645 104.242 105.653 104.289 105.671C104.335 105.689 104.378 105.716 104.415 105.752L106.748 108.007C106.804 108.061 106.844 108.133 106.862 108.212C106.879 108.291 106.874 108.374 106.846 108.45C106.819 108.526 106.771 108.591 106.708 108.637C106.645 108.683 106.57 108.707 106.494 108.707V108.707Z" fill="#E5E1E5"/>
<path d="M268.886 157.152L255 135.338L256.826 131.467C256.959 130.493 256.889 129.499 256.621 128.556L254.619 121.507C254.619 121.507 252.841 118.644 247.312 119.48C247.312 119.48 246.163 121.897 251.957 124.087L250.528 126.32L245.612 122.369L242.151 120.227C242.151 120.227 239.768 114.11 238.977 113.582C238.977 113.582 233.566 110.474 240.127 122.061L240.088 127.119C240.08 128.224 240.337 129.313 240.836 130.281C241.335 131.25 242.058 132.067 242.937 132.654L247.528 137.506L263.475 180.025C265.172 183.78 267.106 187.266 271.02 187.266L268.886 157.152Z" fill="#F9977A"/>
<path d="M247.808 133.785L248.159 133.677C248.318 133.628 248.465 133.542 248.589 133.425C248.713 133.309 248.811 133.164 248.877 133.003C248.943 132.841 248.974 132.666 248.969 132.49C248.963 132.314 248.922 132.141 248.846 131.984L238.248 109.86C238.18 109.718 238.086 109.592 237.971 109.489C237.857 109.386 237.724 109.309 237.582 109.261C237.439 109.214 237.288 109.197 237.139 109.213C236.99 109.228 236.846 109.275 236.714 109.35C236.458 109.497 236.266 109.744 236.177 110.038C236.088 110.333 236.11 110.653 236.238 110.931L246.486 133.164C246.603 133.416 246.799 133.617 247.041 133.731C247.283 133.845 247.555 133.864 247.808 133.785Z" fill="#1B2E35"/>
<path d="M241.271 131.006L246.184 133.151C246.396 133.244 246.633 133.254 246.851 133.179C247.07 133.104 247.257 132.95 247.379 132.742V132.742C247.45 132.622 247.497 132.487 247.517 132.346C247.537 132.205 247.529 132.061 247.495 131.923C247.46 131.786 247.399 131.657 247.316 131.545C247.233 131.434 247.129 131.342 247.011 131.275L241.322 128.055L245.648 129.499C245.804 129.551 245.969 129.57 246.133 129.554C246.297 129.537 246.456 129.487 246.601 129.404C246.746 129.322 246.874 129.21 246.978 129.074C247.082 128.939 247.16 128.783 247.206 128.615V128.615C247.3 128.28 247.265 127.92 247.109 127.613C246.954 127.306 246.691 127.076 246.377 126.975L242 125.566L245.999 125.632C246.271 125.636 246.535 125.529 246.735 125.332C246.935 125.135 247.057 124.864 247.074 124.575V124.575C247.091 124.302 247.014 124.033 246.859 123.816C246.703 123.599 246.48 123.449 246.229 123.394L240.127 122.061" fill="#F9977A"/>
<path d="M247.719 132.013C247.695 131.815 247.627 131.626 247.521 131.462C247.415 131.297 247.275 131.161 247.11 131.065L246.306 130.59L244.697 129.64L244.276 129.397L244.331 129.416L245.105 129.68L245.492 129.811C245.65 129.869 245.814 129.902 245.98 129.908C246.326 129.919 246.666 129.807 246.945 129.589C247.225 129.372 247.429 129.062 247.525 128.708C247.622 128.354 247.605 127.976 247.477 127.633C247.35 127.29 247.119 127.003 246.821 126.815C246.554 126.676 246.273 126.569 245.983 126.496L245.204 126.251L244.044 125.885C244.475 125.886 244.905 125.893 245.336 125.89C245.632 125.881 245.855 125.908 246.21 125.869C246.378 125.839 246.538 125.775 246.683 125.679C246.827 125.583 246.952 125.458 247.051 125.311C247.245 125.018 247.323 124.655 247.267 124.301C247.212 123.947 247.027 123.631 246.753 123.422C246.618 123.321 246.466 123.25 246.306 123.211L245.89 123.127L245.068 122.966L243.422 122.66L240.127 122.061L243.377 122.893L245.003 123.301L245.818 123.499C246.069 123.527 246.311 123.614 246.525 123.755C246.705 123.901 246.824 124.117 246.855 124.356C246.886 124.594 246.827 124.837 246.691 125.029C246.624 125.121 246.541 125.199 246.447 125.257C246.352 125.315 246.247 125.352 246.139 125.367C245.94 125.385 245.604 125.355 245.344 125.351C244.231 125.307 243.118 125.275 242.004 125.255C241.941 125.254 241.878 125.275 241.827 125.315C241.776 125.355 241.738 125.412 241.719 125.477C241.708 125.516 241.704 125.557 241.708 125.598C241.712 125.638 241.723 125.678 241.742 125.714C241.76 125.75 241.784 125.782 241.814 125.808C241.844 125.833 241.878 125.853 241.915 125.865L245.023 126.887L245.8 127.142C246.038 127.205 246.269 127.292 246.49 127.402C246.662 127.514 246.794 127.684 246.866 127.883C246.938 128.083 246.947 128.303 246.89 128.509C246.832 128.712 246.713 128.89 246.552 129.016C246.391 129.142 246.196 129.21 245.996 129.208C245.891 129.206 245.787 129.185 245.688 129.148L245.299 129.021L244.522 128.767L241.412 127.751C241.344 127.728 241.272 127.732 241.207 127.76C241.141 127.789 241.087 127.841 241.054 127.907C241.036 127.944 241.025 127.985 241.021 128.027C241.018 128.068 241.022 128.11 241.034 128.15C241.046 128.19 241.065 128.228 241.09 128.26C241.115 128.292 241.146 128.318 241.181 128.338L244.444 130.148L246.083 131.036L246.903 131.481C247.011 131.538 247.104 131.622 247.176 131.726C247.247 131.829 247.295 131.949 247.315 132.075C247.333 132.206 247.323 132.339 247.284 132.464C247.245 132.59 247.179 132.704 247.092 132.797C247.004 132.89 246.897 132.96 246.779 133.001C246.661 133.042 246.536 133.053 246.414 133.033C245.898 132.865 245.282 132.59 244.721 132.374L241.271 131.006L244.629 132.611C245.209 132.87 245.707 133.157 246.354 133.392C246.534 133.427 246.719 133.416 246.895 133.36C247.071 133.304 247.231 133.205 247.364 133.071C247.497 132.937 247.599 132.771 247.66 132.587C247.722 132.403 247.742 132.207 247.719 132.013V132.013Z" fill="#DD765E"/>
<path d="M322.873 323.39L338.773 331.39C338.773 331.39 336.434 341.903 324.148 340.762L315.383 335.01L322.873 323.39Z" fill="#F9977A"/>
<path d="M330.339 327.181C330.339 327.181 342.863 326.596 344.957 333.955C345.063 334.338 345.084 334.742 345.018 335.136C344.952 335.529 344.801 335.901 344.576 336.221L321.483 369.484C321.376 369.636 321.241 369.762 321.086 369.855C320.931 369.948 320.759 370.005 320.582 370.022C320.404 370.039 320.226 370.016 320.057 369.955C319.889 369.894 319.734 369.795 319.604 369.666C318.111 368.21 323.88 352.585 322.941 339.97C322.941 339.97 332.272 333.51 330.339 327.181Z" fill="#376F92"/>
<path d="M276.142 354.618L279.461 373.009C279.461 373.009 270.113 377.203 263.727 365.966L262.914 355.035L276.142 354.618Z" fill="#F9977A"/>
<path d="M277.675 363.273C277.675 363.273 285.509 373.696 281.167 379.839C280.939 380.157 280.645 380.413 280.308 380.589C279.971 380.764 279.6 380.853 279.224 380.849L240.382 380.625C240.204 380.623 240.029 380.582 239.867 380.503C239.705 380.424 239.561 380.31 239.443 380.168C239.325 380.025 239.237 379.858 239.184 379.677C239.131 379.497 239.115 379.306 239.136 379.117C239.358 376.974 254.492 372.556 263.501 364.304C263.501 364.304 274.019 368.671 277.675 363.273Z" fill="#376F92"/>
<path d="M283.32 78.0821C280.601 77.6413 277.824 77.8949 275.215 78.8219C273.993 79.2836 269.522 80.9719 267.342 85.4805C266.515 87.1927 266.328 89.2525 265.953 93.3721C265.719 95.9452 264.789 97.7881 264.79 100.927C264.838 103.469 265.23 105.991 265.953 108.415C267.037 112.209 266.339 114.365 266.879 115.074C269.057 117.932 275.668 115.69 275.767 119.419C275.829 121.722 272.179 131.664 272.254 134.362C272.427 140.649 282.285 134.069 288.183 124.692C288.45 124.266 292.482 121.753 292.06 117.68C291.835 115.504 290.1 105.294 290.266 103.976C290.869 99.2151 293.122 98.6344 294.898 92.8789C295.38 91.4339 295.505 89.8813 295.262 88.3699C295.018 86.8585 294.415 85.439 293.508 84.2475C290.896 80.9835 287.29 78.8012 283.32 78.0821V78.0821Z" fill="#F9977A"/>
<path d="M266.883 98.6126C267.384 98.6126 267.79 98.0743 267.79 97.4104C267.79 96.7464 267.384 96.2081 266.883 96.2081C266.381 96.2081 265.975 96.7464 265.975 97.4104C265.975 98.0743 266.381 98.6126 266.883 98.6126Z" fill="#0A0709"/>
<path d="M275.067 98.6126C275.569 98.6126 275.975 98.0743 275.975 97.4104C275.975 96.7464 275.569 96.2081 275.067 96.2081C274.566 96.2081 274.16 96.7464 274.16 97.4104C274.16 98.0743 274.566 98.6126 275.067 98.6126Z" fill="#0A0709"/>
<path d="M271.2 95.2582C271.089 95.2581 270.981 95.2237 270.889 95.1593C270.084 94.5674 269.13 94.2485 268.152 94.2443C267.174 94.2402 266.218 94.551 265.409 95.136C265.287 95.2325 265.135 95.2739 264.985 95.251C264.835 95.2281 264.7 95.1428 264.609 95.0139C264.517 94.8849 264.478 94.7227 264.499 94.5629C264.52 94.403 264.599 94.2585 264.72 94.1609C265.721 93.4375 266.903 93.0486 268.113 93.0441C269.323 93.0396 270.507 93.4197 271.513 94.1357C271.617 94.2075 271.696 94.3131 271.738 94.4367C271.781 94.5602 271.785 94.6952 271.75 94.8215C271.715 94.9477 271.642 95.0584 271.543 95.1371C271.444 95.2158 271.323 95.2583 271.2 95.2581V95.2582Z" fill="#1E1D22"/>
<path d="M279.683 95.2583C279.572 95.2582 279.464 95.2238 279.372 95.1594C278.565 94.574 277.612 94.2588 276.635 94.2543C275.659 94.2498 274.704 94.5562 273.892 95.1342C273.771 95.231 273.618 95.2728 273.468 95.2502C273.318 95.2277 273.183 95.1427 273.091 95.0139C273 94.8851 272.96 94.723 272.981 94.5631C273.002 94.4032 273.081 94.2586 273.202 94.161C274.204 93.4375 275.385 93.0487 276.595 93.0442C277.806 93.0397 278.99 93.4198 279.996 94.1358C280.1 94.2076 280.179 94.3132 280.221 94.4367C280.264 94.5603 280.268 94.6953 280.233 94.8215C280.198 94.9478 280.125 95.0585 280.026 95.1372C279.927 95.2159 279.807 95.2584 279.683 95.2582V95.2583Z" fill="#1E1D22"/>
<path d="M271.98 95.5063C272.285 96.5195 272.249 97.6147 271.875 98.6019C271.553 99.5941 271.085 100.526 270.489 101.362L270.015 101.936C269.957 101.993 269.91 102.062 269.877 102.138C269.845 102.215 269.827 102.297 269.824 102.381C269.863 102.792 270.052 103.171 270.351 103.434C271.086 104.011 271.997 104.274 272.905 104.169C272.434 104.374 271.925 104.457 271.418 104.41C270.912 104.363 270.423 104.188 269.993 103.899C269.756 103.729 269.557 103.506 269.409 103.245C269.262 102.984 269.169 102.692 269.139 102.389C269.134 102.045 269.253 101.711 269.47 101.457L269.928 100.876C270.487 100.093 270.967 99.2501 271.361 98.3604C271.792 97.4805 272.005 96.4983 271.98 95.5063V95.5063Z" fill="#DD765E"/>
<path d="M286.854 95.9131C287.208 95.8007 287.588 95.8212 287.929 95.9714C288.269 96.1111 288.579 96.3244 288.838 96.5979C289.09 96.8664 289.296 97.1794 289.448 97.523C289.599 97.8645 289.685 98.235 289.7 98.6125C289.446 98.3764 289.205 98.1241 288.978 97.8571C288.75 97.6183 288.555 97.3632 288.33 97.1463C288.118 96.917 287.894 96.7002 287.659 96.4967C287.408 96.2774 287.138 96.0821 286.854 95.9131V95.9131Z" fill="#DD765E"/>
<path d="M287.592 100.926C287.355 100.6 287.185 100.224 287.095 99.8224C287.005 99.421 286.997 99.0039 287.07 98.5986C287.132 98.1889 287.269 97.7964 287.474 97.4436C287.673 97.0904 287.948 96.7932 288.277 96.5773C288.075 97.282 287.91 97.9985 287.783 98.7232C287.679 99.453 287.615 100.189 287.592 100.926V100.926Z" fill="#DD765E"/>
<path d="M284.887 102.676C284.809 101.312 285.011 99.9456 285.478 98.6726C286.126 96.9134 286.921 94.5166 288.536 94.357C289.727 94.2395 290.205 93.9048 290.634 95.1284C291.342 97.1526 290.111 99.3856 289.254 100.941C288.028 103.166 286.986 103.652 286.967 105.192C286.953 106.366 290.101 108.75 290.698 108.291C291.914 107.356 291.248 104.554 294.567 97.8851C296.664 93.6739 297.627 92.8839 297.87 90.2551C297.956 89.3216 298.313 85.4573 296.129 83.2098C295.116 82.1673 294.54 82.4849 290.136 80.4986C288.913 79.9819 287.717 79.3949 286.554 78.74C283.046 76.6991 283.124 75.6492 281.071 75.0277C279.217 74.4663 279.107 75.3096 275.565 75.0863C272.151 74.8711 271.848 74.0615 270.27 74.5409C267.529 75.3731 266.213 78.4903 265.86 79.3279C265.154 80.7779 264.791 82.3892 264.802 84.0222C264.953 85.679 265.529 87.2596 266.468 88.5906C266.913 89.0735 268.718 86.2898 269.702 85.2426C270.666 84.2166 271.762 84.6367 273.255 84.7356C274.711 84.832 274.631 85.7977 276.785 86.6455C277.552 86.9476 280.627 85.4807 281.619 87.2928C282.676 89.2237 283.498 89.4576 283.002 91.2543C282.692 92.3767 282.884 93.7557 283.267 96.514C283.543 98.4934 282.039 105.407 282.039 105.407C281.482 106.619 285.058 105.72 284.887 102.676Z" fill="#1E1D22"/>
<path d="M264.422 214.084L257.13 286.197L258.823 359.045C258.834 359.541 259.028 360.013 259.361 360.359C259.695 360.706 260.142 360.9 260.608 360.9H276.354C276.796 360.9 277.222 360.725 277.55 360.41C277.878 360.096 278.085 359.662 278.131 359.195L282.478 314.673L313.854 338.943C314.057 339.101 314.289 339.21 314.534 339.265C314.78 339.321 315.033 339.32 315.279 339.264C315.524 339.208 315.755 339.097 315.958 338.94C316.16 338.782 316.329 338.58 316.454 338.348L324.477 323.395C324.679 323.019 324.754 322.581 324.691 322.153C324.627 321.726 324.428 321.334 324.127 321.043L291.159 289.156L298.451 248.846L305.15 235.29C307.58 230.373 308.668 224.829 308.289 219.288L307.479 207.427L264.422 214.084Z" fill="#376F92"/>
<path d="M267.2 219.261L266.663 232.392L266.062 245.519L264.858 271.773L264.188 284.896L263.853 291.458C263.675 293.628 263.923 295.814 264.581 297.876C265.256 299.935 266.331 301.818 267.735 303.405C269.106 305.033 270.536 306.606 272.043 308.091C273.528 309.601 275.132 310.974 276.836 312.196C278.511 313.476 280.443 314.324 282.478 314.673C280.431 314.358 278.481 313.54 276.781 312.285C275.052 311.089 273.422 309.738 271.907 308.248C270.383 306.771 268.943 305.198 267.558 303.574C266.123 301.969 265.021 300.06 264.324 297.972C263.644 295.876 263.379 293.652 263.546 291.441L263.847 284.878L264.45 271.751L265.791 245.504L266.464 232.381L267.2 219.261Z" fill="#10394F"/>
<path d="M285.256 289.896C285.756 290.095 286.27 290.249 286.794 290.356C287.303 290.467 287.824 290.502 288.342 290.459C288.856 290.434 289.361 290.3 289.827 290.066C290.307 289.827 290.755 289.521 291.159 289.156C290.855 289.65 290.449 290.063 289.972 290.364C289.483 290.667 288.936 290.848 288.372 290.893C287.256 290.958 286.154 290.605 285.256 289.896Z" fill="#10394F"/>
<path d="M274.129 126.314C274.129 126.314 267.953 145.872 291.934 116.684L302.529 125.893C304.724 127.834 306.25 130.5 306.863 133.469L314.771 171.74H305.135L307.479 207.427L262.295 214.454C262.295 214.454 262.279 165.422 274.129 126.314Z" fill="#F73C4F"/>
<path d="M268.155 204.191C268.97 203.684 269.801 203.223 270.62 202.739L273.023 201.204C274.587 200.135 276.081 198.954 277.494 197.667C278.909 196.394 280.186 194.957 281.302 193.383C281.853 192.59 282.343 191.751 282.766 190.873C283.217 190.002 283.558 189.071 283.78 188.104C283.537 190.121 282.844 192.047 281.76 193.721C280.703 195.413 279.426 196.938 277.968 198.249C276.525 199.564 274.964 200.723 273.307 201.71L270.78 203.074C269.901 203.447 269.036 203.843 268.155 204.191Z" fill="#B02336"/>
<path d="M293.721 172.372L296.802 190.601L284.952 220.556L279.679 225.826C280.493 231.143 282.724 236.098 286.107 240.103C286.107 240.103 289.64 233.176 289.38 225.964L310.851 199.613C312.386 197.729 313.513 195.509 314.154 193.11C314.794 190.71 314.932 188.19 314.557 185.728L312.427 171.74C312.427 171.74 300.016 166.902 293.721 172.372Z" fill="#F9977A"/>
<path d="M295.239 123.757C295.239 123.757 282.37 125.699 285.419 144.836C288.468 163.974 290.095 172.572 290.095 172.572L314.771 171.74" fill="#F73C4F"/>
<path d="M295.239 123.757C293.158 124.252 291.236 125.32 289.664 126.853C288.114 128.379 286.942 130.289 286.251 132.413C285.899 133.467 285.638 134.553 285.47 135.658C285.389 136.21 285.375 136.774 285.324 137.331C285.262 137.887 285.239 138.448 285.256 139.008C285.294 141.258 285.506 143.501 285.891 145.714L288.19 159.101L290.405 172.506L290.085 172.236C294.198 172.097 298.313 172.037 302.427 171.934C306.54 171.831 310.656 171.808 314.771 171.74C310.661 171.95 306.551 172.204 302.44 172.379C298.328 172.553 294.218 172.77 290.105 172.909L289.834 172.918L289.785 172.639L287.481 159.242L285.262 145.828C284.876 143.575 284.687 141.29 284.698 139C284.692 138.426 284.726 137.852 284.801 137.284C284.864 136.713 284.89 136.138 284.985 135.573C285.179 134.441 285.47 133.331 285.853 132.255C286.591 130.093 287.844 128.173 289.49 126.683C291.136 125.193 293.117 124.185 295.239 123.757V123.757Z" fill="#B02336"/>
<path d="M278.63 219.871C278.761 221.125 278.954 222.372 279.209 223.604C279.438 224.839 279.731 226.057 280.07 227.259C280.727 229.663 281.614 231.988 282.717 234.2C283.791 236.421 285.149 238.473 286.752 240.297L287.977 241.645L289.336 242.842L290.013 243.45L290.751 243.97C291.246 244.314 291.738 244.667 292.229 245.029C290.051 243.962 288.062 242.501 286.353 240.71C284.646 238.901 283.205 236.828 282.079 234.561C280.977 232.29 280.124 229.892 279.535 227.414C278.942 224.949 278.639 222.415 278.63 219.871Z" fill="#10394F"/>
<path d="M280.082 114.561C277.118 116.78 271.403 116.685 271.403 116.685L271.386 116.826C273.607 117.114 275.712 117.327 275.767 119.419C275.672 120.59 275.448 121.746 275.099 122.862C278.982 120.485 280.082 114.561 280.082 114.561Z" fill="#DD765E"/>
<path d="M272.654 111.463C273.987 111.463 275.067 110.313 275.067 108.893C275.067 107.474 273.987 106.323 272.654 106.323C271.321 106.323 270.241 107.474 270.241 108.893C270.241 110.313 271.321 111.463 272.654 111.463Z" fill="#B02336"/>
<path d="M270.737 103.67C272.679 103.461 272.979 102.4 276.629 106.881C276.629 106.881 272.777 105.893 265.411 108.349C265.411 108.349 267.957 103.97 270.737 103.67Z" fill="#1E1D22"/>
<path d="M245.727 103.007C246.01 103.007 246.291 102.947 246.553 102.832C246.815 102.716 247.053 102.547 247.253 102.334C247.454 102.12 247.612 101.867 247.721 101.588C247.829 101.309 247.885 101.01 247.885 100.708V96.879C247.885 96.27 247.658 95.6859 247.254 95.2552C246.849 94.8246 246.301 94.5826 245.729 94.5826C245.157 94.5826 244.609 94.8246 244.204 95.2552C243.8 95.6859 243.573 96.27 243.573 96.879V100.708C243.572 101.01 243.628 101.309 243.736 101.588C243.844 101.866 244.002 102.12 244.202 102.333C244.402 102.547 244.64 102.716 244.902 102.832C245.163 102.947 245.444 103.007 245.727 103.007V103.007Z" fill="#4F66D0"/>
<path d="M249.323 99.9382V100.536C249.338 101.508 249.017 102.451 248.42 103.186C247.823 103.921 246.993 104.395 246.088 104.519C245.588 104.572 245.083 104.513 244.606 104.345C244.129 104.178 243.69 103.906 243.317 103.547C242.944 103.188 242.646 102.75 242.442 102.261C242.238 101.773 242.132 101.243 242.131 100.708V99.9382C242.131 99.7365 242.056 99.543 241.922 99.4003C241.788 99.2576 241.606 99.1775 241.417 99.1775H241.408C241.219 99.1775 241.037 99.2576 240.903 99.4003C240.769 99.543 240.694 99.7365 240.694 99.9382V100.708C240.696 101.996 241.133 103.239 241.925 104.212C242.716 105.185 243.81 105.822 245.006 106.007V108.363H243.569C243.474 108.363 243.38 108.382 243.292 108.421C243.204 108.459 243.125 108.516 243.057 108.587C242.99 108.658 242.937 108.743 242.901 108.836C242.864 108.929 242.845 109.03 242.845 109.131C242.845 109.232 242.864 109.332 242.901 109.425C242.937 109.518 242.99 109.603 243.057 109.674C243.125 109.746 243.204 109.802 243.292 109.84C243.38 109.879 243.474 109.898 243.569 109.898H247.881C247.976 109.898 248.07 109.879 248.158 109.84C248.245 109.802 248.325 109.746 248.392 109.674C248.459 109.603 248.513 109.518 248.549 109.425C248.586 109.332 248.604 109.232 248.604 109.131C248.604 109.03 248.586 108.929 248.549 108.836C248.513 108.743 248.459 108.658 248.392 108.587C248.325 108.516 248.245 108.459 248.158 108.421C248.07 108.382 247.976 108.363 247.881 108.363H246.444V106.007C247.64 105.823 248.734 105.186 249.526 104.213C250.318 103.24 250.754 101.996 250.756 100.708V99.9382C250.756 99.7365 250.681 99.543 250.547 99.4003C250.413 99.2576 250.231 99.1775 250.042 99.1775H250.037C249.847 99.1775 249.666 99.2577 249.532 99.4004C249.398 99.543 249.323 99.7365 249.323 99.9382V99.9382Z" fill="#F73C4F"/>
<path d="M374.283 97.4622L380.288 131.146L392.542 136.004L404.798 131.146L410.804 97.4622H374.283Z" fill="#FFBA55"/>
<path d="M360.272 83.7567C361.112 82.903 362.167 82.33 363.309 82.1089C364.451 81.8878 365.628 82.0282 366.696 82.5128C367.28 82.8134 367.8 83.2383 368.224 83.7613C368.648 84.2842 368.967 84.8942 369.161 85.5534C369.21 85.7371 369.774 88.0224 368.448 89.4922C367.824 90.184 366.657 90.8328 365.852 90.3904C365.655 90.2863 365.485 90.1301 365.361 89.9365C365.236 89.743 365.159 89.5187 365.139 89.2848C365.142 88.897 365.402 88.8171 365.528 88.3174C365.67 87.7537 365.565 86.97 365.204 86.7972C364.819 86.6133 364.148 87.1213 363.841 87.6954C363.269 88.7654 363.775 90.4216 364.641 91.3579C366.045 92.8749 368.353 92.4543 369.313 92.2794C371.43 91.8163 373.328 90.5774 374.677 88.7781C375.686 87.6402 376.401 86.2436 376.753 84.7241C376.996 83.254 376.937 81.7451 376.58 80.3016C376.032 77.5018 375.352 77.087 374.158 73.4834C373.252 70.7517 372.803 69.3462 372.946 67.4025C372.988 65.7288 373.534 64.1139 374.504 62.7957C375.692 61.3283 377.365 60.4045 379.175 60.216C380.301 60.1429 381.428 60.3363 382.475 60.7823C383.522 61.2284 384.463 61.916 385.231 62.7957L387.394 60.1843C387.394 60.1843 384.798 59.1564 388.561 52.2461L387.848 51.6587C387.846 47.4814 388.617 43.3445 390.116 39.4846C391.616 35.6246 393.814 32.1171 396.587 29.1625C399.36 26.2079 402.652 23.8641 406.276 22.265C409.899 20.6658 413.783 19.8428 417.705 19.8428C421.627 19.8428 425.511 20.6658 429.135 22.265C432.758 23.8641 436.05 26.2079 438.823 29.1625C441.596 32.1171 443.795 35.6246 445.294 39.4846C446.794 43.3445 447.565 47.4814 447.562 51.6587L450.587 137.979H451.628C452.248 137.979 452.842 138.241 453.28 138.707C453.718 139.174 453.964 139.807 453.964 140.466C453.964 141.126 453.718 141.759 453.28 142.226C452.842 142.692 452.248 142.954 451.628 142.954H450.762L451.125 153.335H451.628C452.248 153.335 452.842 153.597 453.28 154.063C453.718 154.53 453.964 155.163 453.964 155.822C453.964 156.482 453.718 157.115 453.28 157.582C452.842 158.048 452.248 158.31 451.628 158.31H451.299L458.878 374.584H459.328C460.108 374.584 460.856 374.914 461.408 375.502C461.959 376.089 462.269 376.886 462.269 377.717C462.269 378.548 461.959 379.344 461.408 379.932C460.856 380.519 460.108 380.849 459.328 380.849H426.886C426.106 380.849 425.358 380.519 424.806 379.932C424.255 379.344 423.945 378.548 423.945 377.717C423.945 376.886 424.255 376.089 424.806 375.502C425.358 374.914 426.106 374.584 426.886 374.584H427.596L435.174 158.31H434.845C434.226 158.31 433.632 158.048 433.194 157.582C432.755 157.115 432.509 156.482 432.509 155.822C432.509 155.163 432.755 154.53 433.194 154.063C433.632 153.597 434.226 153.335 434.845 153.335H435.349L435.712 142.954H434.845C434.226 142.954 433.632 142.692 433.194 142.226C432.755 141.759 432.509 141.126 432.509 140.466C432.509 139.807 432.755 139.174 433.194 138.707C433.632 138.241 434.226 137.979 434.845 137.979H435.887L438.911 51.6587C438.913 48.6915 438.366 45.7531 437.301 43.0113C436.236 40.2695 434.674 37.778 432.705 35.6793C430.736 33.5805 428.397 31.9156 425.824 30.7797C423.25 29.6438 420.491 29.0591 417.705 29.0591C414.919 29.0591 412.16 29.6438 409.587 30.7797C407.013 31.9156 404.675 33.5805 402.705 35.6793C400.736 37.778 399.174 40.2695 398.109 43.0113C397.044 45.7531 396.497 48.6915 396.499 51.6587L395.785 52.2461C399.549 59.1563 396.953 60.1843 396.953 60.1843L399.116 62.7957C399.884 61.916 400.825 61.2284 401.872 60.7823C402.919 60.3362 404.046 60.1429 405.172 60.216C406.982 60.4045 408.655 61.3283 409.843 62.7957C410.812 64.1139 411.358 65.7288 411.401 67.4025C411.544 69.3462 411.095 70.7517 410.189 73.4834C408.995 77.087 408.315 77.5018 407.767 80.3016C407.41 81.7451 407.351 83.254 407.594 84.7241C407.946 86.2436 408.661 87.6402 409.67 88.7781C411.019 90.5774 412.917 91.8163 415.034 92.2794C415.994 92.4543 418.302 92.8749 419.706 91.3579C420.572 90.4216 421.077 88.7654 420.506 87.6954C420.199 87.1213 419.527 86.6133 419.143 86.7972C418.782 86.97 418.676 87.7537 418.819 88.3174C418.945 88.8171 419.205 88.897 419.208 89.2848C419.188 89.5187 419.111 89.743 418.986 89.9365C418.861 90.1301 418.692 90.2863 418.494 90.3904C417.69 90.8328 416.523 90.1841 415.899 89.4922C414.573 88.0224 415.137 85.7371 415.185 85.5534C415.38 84.8942 415.699 84.2842 416.123 83.7613C416.547 83.2383 417.067 82.8134 417.651 82.5128C418.719 82.0282 419.896 81.8878 421.038 82.1089C422.179 82.33 423.235 82.903 424.074 83.7567C425.233 84.9382 425.928 86.543 426.021 88.2484C426.151 92.1401 422.685 94.7824 421.739 95.5041C418.402 98.0476 414.717 98.1563 412.006 98.1991C404.749 98.3134 398.308 98.3584 392.173 98.3412C386.039 98.3584 379.598 98.3134 372.341 98.1991C369.63 98.1563 365.944 98.0476 362.608 95.5041C361.662 94.7824 358.196 92.1401 358.326 88.2484C358.419 86.543 359.114 84.9382 360.272 83.7567V83.7567Z" fill="#6B3832"/>
<path d="M374.283 97.4622L380.288 131.146L392.542 136.004L404.798 131.146L410.804 97.4622H374.283ZM403.534 130.009L393.263 134.079V98.9977H409.063L403.534 130.009ZM376.023 98.9977H391.822V134.079L381.553 130.009L376.023 98.9977Z" fill="#6B3832"/>
<path d="M392.555 140.466C394.24 140.466 395.605 139.012 395.605 137.218C395.605 135.424 394.24 133.97 392.555 133.97C390.871 133.97 389.505 135.424 389.505 137.218C389.505 139.012 390.871 140.466 392.555 140.466Z" fill="#6B3832"/>
<path d="M480.036 378.948H33.6079V380.849H480.036V378.948Z" fill="#935B50"/>
</g>
<defs>
<clipPath id="clip0_15_8">
<rect width="502" height="393" fill="white" transform="translate(0.5)"/>
</clipPath>
</defs>
</svg>
