<svg width="535" height="397" viewBox="0 0 535 397" fill="none" xmlns="http://www.w3.org/2000/svg">
<g clip-path="url(#clip0_15_21)">
<g clip-path="url(#clip1_15_21)">
<path d="M300.429 26.6223C306.547 29.6178 312.281 32.9372 317.478 36.4743C335.65 48.8333 350.268 66.8269 368.125 79.2232C384.987 90.9278 405.579 93.7733 424.874 95.7297C458.507 99.1404 528.655 131.849 515.989 192.472C511.381 214.534 495.131 229.517 486.811 249.495C477.961 270.747 478.89 297.254 464.799 315.677C458.6 323.778 450.043 329.128 441.258 333.181C382.793 360.144 317.137 358.891 255.144 355.919C206.213 353.573 127.623 365.972 84.644 335.696C63.306 320.664 74.402 279.574 59.637 257.504C47.23 238.959 30.344 226.778 22.049 203.564C7.93303 164.063 28.054 112.658 63.284 98.6361C85.299 89.874 108.622 85.8596 130.384 76.2366C152.867 66.291 161.53 51.3945 178.676 33.7631C209.673 1.89405 262.429 8.01038 300.429 26.6223Z" fill="#0798F2"/>
<path d="M354.576 340.916H184.865V221.167C184.865 218.903 186.461 217.07 188.429 217.07H351.012C352.981 217.07 354.576 218.903 354.576 221.167V340.916Z" fill="#D3D3D3"/>
<path d="M348.367 225.747H191.077V331.347H348.367V225.747Z" fill="#F2F2F2"/>
<path d="M157.874 376.563C156.314 378.865 159.295 385.739 163.97 385.739C235.681 385.739 307.39 385.739 379.099 385.739C383.771 385.739 386.714 378.865 384.925 376.563H157.874Z" fill="#D3D3D3"/>
<path d="M384.325 375.305C386.114 377.603 383.771 379.468 379.1 379.468C307.391 379.468 235.681 379.468 163.971 379.468C159.296 379.468 156.772 377.603 158.332 375.305C165.674 364.473 173.016 353.645 180.357 342.814C181.917 340.514 185.999 338.65 189.477 338.65C242.826 338.65 296.178 338.65 349.528 338.65C353.002 338.65 357.274 340.514 359.063 342.814C367.481 353.648 375.905 364.473 384.325 375.305Z" fill="#F2F2F2"/>
<g opacity="0.5">
<path opacity="0.5" d="M206.11 349.609C203.203 349.609 201.752 349.609 198.844 349.609C199.872 347.891 200.387 347.031 201.413 345.312C204.205 345.312 205.599 345.312 208.392 345.312C207.48 347.031 207.023 347.889 206.11 349.609ZM215.527 349.609C212.623 349.609 211.169 349.609 208.261 349.609C209.141 347.891 209.581 347.031 210.459 345.312C213.251 345.312 214.645 345.312 217.436 345.312C216.673 347.031 216.291 347.891 215.527 349.609ZM212.518 344.49C208.275 344.49 206.154 344.49 201.911 344.49C202.293 343.849 202.485 343.528 202.869 342.886C207.049 342.886 209.133 342.886 213.315 342.886C212.995 343.528 212.836 343.849 212.518 344.49ZM224.95 344.491C220.706 344.491 218.583 344.49 214.34 344.49C214.646 343.849 214.799 343.528 215.107 342.886C219.284 342.886 221.375 342.886 225.553 342.886C225.313 343.528 225.19 343.849 224.95 344.491ZM237.383 344.49C233.139 344.49 231.016 344.49 226.772 344.49C227.001 343.849 227.117 343.528 227.346 342.886C231.525 342.886 233.616 342.886 237.797 342.886C237.631 343.528 237.548 343.849 237.383 344.49ZM249.814 344.49C245.57 344.49 243.449 344.49 239.206 344.49C239.359 343.849 239.434 343.528 239.587 342.886C243.767 342.886 245.859 342.886 250.035 342.886C249.949 343.528 249.904 343.849 249.814 344.49ZM262.248 344.49C258.004 344.49 255.882 344.49 251.637 344.49C251.715 343.849 251.752 343.528 251.83 342.886C256.009 342.886 258.097 342.886 262.275 342.886C262.264 343.528 262.259 343.849 262.248 344.49ZM274.68 344.49C270.437 344.49 268.318 344.49 264.072 344.49C264.072 343.849 264.072 343.528 264.072 342.886C268.251 342.886 270.338 342.886 274.517 342.886C274.583 343.528 274.612 343.849 274.68 344.49ZM287.114 344.49C282.871 344.49 280.747 344.49 276.504 344.49C276.427 343.849 276.388 343.528 276.31 342.886C280.49 342.886 282.579 342.886 286.759 342.886C286.899 343.528 286.971 343.849 287.114 344.49ZM299.548 344.49C295.302 344.49 293.182 344.49 288.937 344.49C288.784 343.849 288.706 343.528 288.553 342.886C292.732 342.886 294.82 342.886 298.999 342.886C299.22 343.528 299.329 343.849 299.548 344.49ZM311.981 344.49C307.735 344.49 305.615 344.49 301.371 344.49C301.138 343.849 301.023 343.528 300.791 342.886C304.971 342.886 307.062 342.886 311.242 342.886C311.538 343.528 311.685 343.849 311.981 344.49ZM324.411 344.49C320.165 344.49 318.045 344.49 313.803 344.49C313.496 343.849 313.341 343.528 313.036 342.886C317.213 342.886 319.3 342.886 323.479 342.886C323.851 343.528 324.037 343.849 324.411 344.49ZM338.284 344.49C333.466 344.49 331.056 344.49 326.236 344.49C325.852 343.849 325.659 343.528 325.275 342.886C330.02 342.886 332.391 342.886 337.139 342.886C337.596 343.528 337.827 343.849 338.284 344.49ZM224.94 349.609C222.034 349.609 220.582 349.609 217.676 349.609C218.406 347.891 218.773 347.032 219.501 345.315C222.293 345.315 223.687 345.312 226.478 345.312C225.864 347.033 225.556 347.889 224.94 349.609ZM234.355 349.609C231.451 349.609 229.997 349.609 227.09 349.609C227.673 347.891 227.963 347.031 228.547 345.312C231.338 345.312 232.734 345.315 235.524 345.315C235.057 347.033 234.823 347.891 234.355 349.609ZM243.772 349.609C240.866 349.609 239.414 349.609 236.508 349.609C236.942 347.889 237.16 347.032 237.592 345.312C240.383 345.312 241.777 345.312 244.569 345.312C244.251 347.031 244.089 347.891 243.772 349.609ZM253.187 349.609C250.279 349.609 248.827 349.609 245.923 349.609C246.207 347.891 246.347 347.028 246.634 345.312C249.425 345.312 250.821 345.312 253.613 345.312C253.441 347.031 253.354 347.891 253.187 349.609ZM262.597 349.609C259.694 349.609 258.242 349.609 255.339 349.609C255.475 347.891 255.543 347.028 255.679 345.312C258.469 345.312 259.864 345.312 262.654 345.312C262.633 347.031 262.622 347.891 262.597 349.609ZM272.017 349.609C269.111 349.609 267.659 349.609 264.753 349.609C264.742 347.891 264.737 347.031 264.725 345.312C267.514 345.312 268.912 345.312 271.7 345.312C271.828 347.031 271.891 347.891 272.017 349.609ZM281.431 349.609C278.526 349.609 277.074 349.609 274.17 349.609C274.011 347.891 273.931 347.031 273.772 345.312C276.561 345.312 277.955 345.312 280.744 345.312C281.02 347.031 281.156 347.891 281.431 349.609ZM290.844 349.609C287.938 349.609 286.487 349.609 283.582 349.609C283.275 347.891 283.12 347.031 282.811 345.312C285.602 345.312 286.996 345.312 289.788 345.312C290.209 347.031 290.421 347.891 290.844 349.609ZM203.067 355.336C200.008 355.336 198.481 355.336 195.424 355.336C196.45 353.619 196.962 352.759 197.988 351.04C200.934 351.04 202.405 351.04 205.349 351.04C204.436 352.759 203.979 353.617 203.067 355.336ZM212.98 355.336C209.92 355.336 208.394 355.336 205.334 355.336C206.214 353.619 206.654 352.759 207.532 351.04C210.475 351.04 211.948 351.04 214.893 351.04C214.126 352.758 213.742 353.617 212.98 355.336ZM222.889 355.336C219.829 355.336 218.302 355.336 215.243 355.336C215.973 353.619 216.336 352.759 217.068 351.04C220.011 351.04 221.482 351.04 224.426 351.04C223.811 352.759 223.502 353.617 222.889 355.336ZM232.799 355.336C229.74 355.336 228.21 355.336 225.151 355.336C225.733 353.619 226.025 352.759 226.605 351.04C229.551 351.04 231.022 351.04 233.967 351.04C233.499 352.759 233.265 353.617 232.799 355.336ZM242.71 355.336C239.653 355.336 238.121 355.336 235.065 355.336C235.499 353.619 235.714 352.759 236.147 351.044C239.092 351.044 240.561 351.04 243.506 351.04C243.185 352.759 243.028 353.617 242.71 355.336ZM252.616 355.336C249.557 355.336 248.03 355.336 244.971 355.336C245.256 353.619 245.398 352.759 245.684 351.04C248.627 351.04 250.098 351.04 253.042 351.04C252.873 352.758 252.786 353.617 252.616 355.336ZM262.524 355.336C259.467 355.336 257.94 355.336 254.882 355.336C255.018 353.619 255.088 352.759 255.224 351.04C258.166 351.04 259.637 351.04 262.578 351.04C262.557 352.759 262.546 353.617 262.524 355.336ZM272.436 355.336C269.379 355.336 267.85 355.336 264.791 355.336C264.78 353.619 264.775 352.759 264.763 351.04C267.706 351.04 269.177 351.04 272.121 351.04C272.246 352.759 272.312 353.617 272.436 355.336ZM282.344 355.336C279.289 355.336 277.761 355.336 274.703 355.336C274.542 353.619 274.461 352.759 274.304 351.04C277.246 351.04 278.717 351.04 281.658 351.04C281.933 352.759 282.07 353.617 282.344 355.336ZM292.253 355.336C289.196 355.336 287.666 355.336 284.61 355.336C284.301 353.619 284.145 352.759 283.838 351.04C286.781 351.04 288.252 351.04 291.196 351.04C291.619 352.759 291.831 353.617 292.253 355.336ZM200.027 361.063C196.814 361.063 195.21 361.063 192 361.063C193.025 359.346 193.541 358.485 194.568 356.769C197.663 356.769 199.212 356.766 202.309 356.766C201.396 358.482 200.938 359.345 200.027 361.063ZM210.431 361.063C207.221 361.063 205.616 361.063 202.406 361.063C203.283 359.346 203.723 358.485 204.601 356.769C207.699 356.769 209.246 356.769 212.344 356.769C211.579 358.484 211.195 359.345 210.431 361.063ZM220.837 361.063C217.625 361.063 216.02 361.063 212.808 361.063C213.538 359.346 213.903 358.485 214.633 356.769C217.731 356.769 219.278 356.769 222.374 356.769C221.76 358.484 221.452 359.345 220.837 361.063ZM231.24 361.063C228.028 361.063 226.422 361.063 223.21 361.063C223.792 359.346 224.084 358.485 224.665 356.769C227.763 356.769 229.312 356.769 232.408 356.769C231.942 358.484 231.708 359.345 231.24 361.063ZM241.643 361.063C238.434 361.063 236.829 361.063 233.619 361.063C234.051 359.346 234.271 358.485 234.701 356.769C237.797 356.769 239.349 356.769 242.441 356.769C242.125 358.484 241.964 359.345 241.643 361.063ZM252.045 361.063C248.835 361.063 247.231 361.063 244.02 361.063C244.304 359.346 244.449 358.485 244.734 356.769C247.829 356.769 249.378 356.769 252.475 356.769C252.303 358.484 252.217 359.345 252.045 361.063ZM262.447 361.063C259.238 361.063 257.633 361.063 254.426 361.063C254.562 359.346 254.63 358.485 254.766 356.769C257.861 356.769 259.41 356.769 262.503 356.769C262.483 358.484 262.471 359.345 262.447 361.063ZM272.858 361.063C269.646 361.063 268.04 361.063 264.83 361.063C264.821 359.346 264.814 358.485 264.802 356.769C267.898 356.769 269.449 356.769 272.542 356.769C272.669 358.484 272.73 359.345 272.858 361.063ZM283.26 361.063C280.052 361.063 278.445 361.063 275.238 361.063C275.077 359.346 274.996 358.485 274.837 356.769C277.932 356.769 279.479 356.769 282.574 356.769C282.848 358.484 282.987 359.345 283.26 361.063ZM293.661 361.063C290.453 361.063 288.847 361.063 285.634 361.063C285.328 359.346 285.174 358.485 284.865 356.769C287.96 356.769 289.508 356.769 292.605 356.769C293.026 358.484 293.238 359.345 293.661 361.063ZM196.985 366.787C193.622 366.787 191.938 366.787 188.576 366.787C189.602 365.069 190.119 364.211 191.145 362.495C194.394 362.495 196.018 362.495 199.265 362.495C198.355 364.211 197.899 365.069 196.985 366.787ZM207.885 366.787C204.524 366.787 202.841 366.787 199.478 366.787C200.358 365.069 200.796 364.211 201.676 362.495C204.923 362.495 206.547 362.495 209.798 362.495C209.033 364.211 208.648 365.069 207.885 366.787ZM218.782 366.787C215.419 366.787 213.737 366.787 210.375 366.787C211.105 365.069 211.471 364.211 212.203 362.495C215.447 362.495 217.073 362.495 220.322 362.495C219.707 364.211 219.4 365.069 218.782 366.787ZM229.645 366.923C226.277 366.923 224.593 366.923 221.223 366.923C221.827 365.153 222.125 364.266 222.725 362.496C225.976 362.496 227.601 362.496 230.85 362.496C230.368 364.265 230.128 365.153 229.645 366.923ZM295.073 366.787C274.106 366.787 253.137 366.787 232.172 366.787C232.603 365.069 232.819 364.211 233.253 362.495C253.509 362.495 273.763 362.495 294.016 362.495C294.438 364.211 294.651 365.069 295.073 366.787ZM248.578 376.222C264.485 376.222 280.39 376.222 296.294 376.222L292.276 368.907C276.91 368.907 267.74 368.907 252.376 368.907L248.578 376.222ZM299.364 349.609C296.458 349.609 295.004 349.609 292.1 349.609C291.655 347.891 291.436 347.031 290.994 345.312C293.784 345.312 295.179 345.312 297.971 345.312C298.528 347.028 298.804 347.891 299.364 349.609ZM301.22 355.336C298.161 355.336 296.633 355.336 293.572 355.336C293.131 353.619 292.911 352.759 292.468 351.04C295.411 351.04 296.884 351.04 299.83 351.04C300.384 352.759 300.663 353.617 301.22 355.336ZM303.076 361.063C299.866 361.063 298.258 361.063 295.048 361.063C294.605 359.346 294.387 358.485 293.944 356.769C297.042 356.769 298.587 356.769 301.685 356.769C302.241 358.484 302.517 359.345 303.076 361.063ZM304.932 366.787C301.569 366.787 299.886 366.787 296.523 366.787C296.08 365.069 295.859 364.211 295.417 362.495C298.666 362.495 300.29 362.495 303.539 362.495C304.096 364.211 304.375 365.069 304.932 366.787ZM307.879 349.609C304.973 349.609 303.521 349.609 300.615 349.609C300.038 347.891 299.748 347.031 299.174 345.312C301.964 345.312 303.36 345.312 306.152 345.312C306.841 347.031 307.188 347.891 307.879 349.609ZM310.184 355.336C307.124 355.336 305.595 355.336 302.538 355.336C301.961 353.619 301.671 352.759 301.097 351.04C304.04 351.04 305.508 351.04 308.456 351.04C309.145 352.758 309.493 353.617 310.184 355.336ZM312.486 361.063C309.274 361.063 307.669 361.063 304.459 361.063C303.882 359.346 303.593 358.485 303.016 356.769C306.112 356.769 307.661 356.769 310.757 356.769C311.451 358.484 311.794 359.345 312.486 361.063ZM314.789 366.787C311.425 366.787 309.742 366.787 306.379 366.787C305.805 365.069 305.515 364.211 304.941 362.495C308.187 362.495 309.814 362.495 313.061 362.495C313.753 364.211 314.096 365.069 314.789 366.787ZM316.395 349.609C313.489 349.609 312.038 349.609 309.132 349.609C308.421 347.891 308.065 347.031 307.354 345.312C310.146 345.312 311.54 345.312 314.333 345.312C315.158 347.031 315.572 347.891 316.395 349.609ZM319.145 355.336C316.088 355.336 314.558 355.336 311.5 355.336C310.789 353.619 310.433 352.758 309.722 351.04C312.667 351.04 314.138 351.04 317.083 351.04C317.907 352.759 318.322 353.617 319.145 355.336ZM321.898 361.063C318.685 361.063 317.081 361.063 313.87 361.063C313.159 359.346 312.805 358.485 312.092 356.769C315.19 356.769 316.739 356.769 319.835 356.769C320.658 358.484 321.073 359.345 321.898 361.063ZM324.647 366.787C321.284 366.787 319.601 366.787 316.238 366.787C315.528 365.069 315.174 364.211 314.461 362.495C317.71 362.495 319.334 362.495 322.584 362.495C323.408 364.211 323.822 365.069 324.647 366.787ZM324.91 349.609C322.006 349.609 320.553 349.609 317.647 349.609C316.803 347.891 316.38 347.031 315.536 345.312C318.325 345.312 319.719 345.312 322.511 345.312C323.474 347.031 323.951 347.891 324.91 349.609ZM328.109 355.336C325.052 355.336 323.523 355.336 320.464 355.336C319.62 353.619 319.196 352.759 318.352 351.04C321.294 351.04 322.768 351.04 325.711 351.04C326.67 352.759 327.152 353.617 328.109 355.336ZM331.307 361.063C328.097 361.063 326.493 361.063 323.282 361.063C322.437 359.346 322.016 358.485 321.169 356.769C324.265 356.769 325.814 356.769 328.91 356.769C329.87 358.484 330.349 359.345 331.307 361.063ZM334.506 366.787C331.143 366.787 329.462 366.787 326.097 366.787C325.253 365.069 324.831 364.211 323.984 362.495C327.233 362.495 328.858 362.495 332.108 362.495C333.066 364.211 333.545 365.069 334.506 366.787ZM333.43 349.609C330.522 349.609 329.067 349.609 326.164 349.609C325.183 347.891 324.693 347.031 323.713 345.312C326.505 345.312 327.901 345.312 330.693 345.312C331.787 347.031 332.333 347.891 333.43 349.609ZM337.072 355.336C334.015 355.336 332.483 355.336 329.426 355.336C328.446 353.619 327.957 352.759 326.98 351.04C329.922 351.04 331.394 351.04 334.339 351.04C335.433 352.759 335.98 353.617 337.072 355.336ZM340.719 361.063C337.509 361.063 335.902 361.063 332.689 361.063C331.711 359.346 331.223 358.485 330.243 356.769C333.341 356.769 334.888 356.769 337.986 356.769C339.081 358.484 339.626 359.345 340.719 361.063ZM344.363 366.787C341 366.787 339.319 366.787 335.952 366.787C334.974 365.069 334.483 364.211 333.505 362.495C336.756 362.495 338.381 362.495 341.63 362.495C342.723 364.211 343.269 365.069 344.363 366.787ZM341.942 349.609C339.038 349.609 337.584 349.609 334.68 349.609C333.566 347.891 333.011 347.031 331.894 345.312C334.686 345.312 336.08 345.312 338.874 345.312C340.101 347.031 340.714 347.891 341.942 349.609ZM346.035 355.336C342.978 355.336 341.446 355.336 338.389 355.336C337.279 353.619 336.72 352.759 335.608 351.04C338.551 351.04 340.022 351.04 342.966 351.04C344.193 352.759 344.807 353.617 346.035 355.336ZM350.128 361.063C346.918 361.063 345.313 361.063 342.101 361.063C340.987 359.346 340.432 358.485 339.318 356.769C342.414 356.769 343.963 356.769 347.059 356.769C348.287 358.484 348.9 359.345 350.128 361.063ZM354.221 366.787C350.858 366.787 349.177 366.787 345.81 366.787C344.698 365.069 344.141 364.211 343.029 362.495C346.278 362.495 347.902 362.495 351.151 362.495C352.379 364.211 352.991 365.069 354.221 366.787Z" fill="#D3D3D3"/>
</g>
<path d="M309.997 331.318H235.109C235.644 328.865 236.134 326.907 236.564 325.544C236.781 324.858 237.085 324.199 237.476 323.576C238.803 321.455 241.075 319.651 244.002 318.126C247.496 316.302 251.918 314.869 256.766 313.733C261.917 312.542 267.536 311.683 273.007 311.061C273.377 311.024 273.743 310.98 274.113 310.944C280.198 310.303 286.044 309.951 290.761 309.781C297.273 309.527 301.663 309.58 301.663 309.58C301.663 309.58 302.015 310.213 302.632 311.477C304.077 314.473 306.966 321.041 309.997 331.318Z" fill="#0B4870"/>
<path d="M252.63 193.449C252.488 194.532 252.238 195.535 251.884 196.501L252.096 193.77C252.275 193.648 252.454 193.569 252.63 193.449Z" fill="#FFE3CA"/>
<path d="M292.299 189.395C292.299 189.395 292.299 189.395 292.299 189.431C292.226 189.395 292.155 189.353 292.121 189.353C292.193 189.354 292.226 189.395 292.299 189.395Z" fill="#EEBEA7"/>
<path d="M369.156 247.012C369.156 247.012 373.782 242.174 372.865 238.544C372.088 235.464 373.261 232.014 373.553 230.582C373.949 228.686 374.108 222.529 375.362 222.864C377.485 223.446 376.995 233.274 377.256 235.369C377.518 237.462 383.143 230.452 385.06 230.086C386.982 229.711 396.746 240.877 392.396 245.189C388.046 249.492 382.047 251.239 381.413 252.168C380.78 253.098 377.799 255.652 377.799 255.652L369.156 247.012Z" fill="#F1B99E"/>
<path d="M383.832 230.815C383.832 230.815 397.933 218.629 399.474 218.703C401.021 218.773 401.555 219.68 400.277 220.878C399.004 222.08 386.962 233.105 386.962 233.105C386.962 233.105 405.794 221.84 407.073 221.589C407.815 221.44 408.385 223.051 407.751 223.768C407.121 224.476 389.596 236.916 389.596 236.916C389.596 236.916 407.195 226.432 408.317 226.581C409.301 226.716 410.002 228.546 408.744 229.424C407.485 230.3 391.636 241.075 391.636 241.075C391.636 241.075 404.876 234.36 405.757 235.11C406.292 235.575 407.056 236.595 403.597 238.206C400.131 239.819 392.594 244.97 392.594 244.97L383.832 230.815Z" fill="#F1B99E"/>
<path d="M283.156 178.876V179.959C283.081 179.762 283.012 179.599 282.978 179.398C282.905 179.359 282.905 179.28 282.905 179.236C282.978 179.119 283.048 179 283.156 178.876Z" fill="#FFBE55"/>
<path d="M272.554 185.462C272.412 185.499 272.231 185.499 272.091 185.499V185.42C272.231 185.462 272.412 185.462 272.554 185.462ZM283.156 178.876V179.199C283.081 179.28 283.048 179.317 282.978 179.398C282.587 179.88 282.158 180.32 281.732 180.764C281.553 180.925 281.412 181.083 281.236 181.244C281.447 181.006 281.696 180.723 281.913 180.483C282.233 180.122 282.551 179.68 282.905 179.236C282.978 179.119 283.048 179 283.156 178.876Z" fill="#EEBEA7"/>
<path d="M291.302 165.03C289.346 169.928 286.961 174.344 284.256 177.836C283.903 178.316 283.509 178.797 283.155 179.2V178.877C283.047 179 282.977 179.12 282.904 179.237C282.55 179.682 282.232 180.123 281.912 180.484C281.695 180.725 281.446 181.007 281.235 181.245C281.16 181.287 281.092 181.368 281.021 181.447C280.913 181.567 280.807 181.689 280.698 181.728C280.413 182.009 280.132 182.25 279.809 182.49C279.419 182.811 279.064 183.091 278.674 183.333C278.566 183.413 278.459 183.492 278.389 183.535C278.03 183.773 277.678 183.975 277.36 184.134C277.035 184.336 276.68 184.496 276.36 184.617L276.326 184.657C276.042 184.739 275.827 184.858 275.577 184.938C275.504 184.979 275.437 185.019 275.363 185.019C275.117 185.098 274.867 185.177 274.616 185.22C274.547 185.22 274.511 185.259 274.44 185.259H274.331C274.155 185.302 273.943 185.341 273.765 185.382C273.586 185.42 273.373 185.42 273.196 185.42C273.02 185.462 272.837 185.462 272.695 185.462H272.661C272.627 185.499 272.591 185.499 272.555 185.462C272.413 185.462 272.232 185.462 272.092 185.42V185.499C271.88 185.499 271.665 185.462 271.418 185.42C271.167 185.382 270.883 185.341 270.632 185.302C270.49 185.259 270.351 185.259 270.169 185.22C270.029 185.177 269.885 185.177 269.743 185.098C268.997 184.898 268.288 184.576 267.539 184.134C267.325 184.016 267.076 183.856 266.862 183.696C265.689 182.933 264.549 181.849 263.374 180.483C262.951 180.004 262.558 179.44 262.131 178.876C260.317 176.307 258.505 172.899 256.831 168.564C256.12 166.755 255.477 164.989 254.909 163.304C255.797 165.27 254.248 146.925 254.605 147.569C249.768 137.132 254.589 145.722 256.301 140.547C267.006 145.643 287.815 154.434 287.815 145.522C287.815 145.522 288.277 150.941 288.813 156.56C289.239 161.176 289.702 165.955 289.917 167.76C289.916 167.759 290.482 166.755 291.302 165.03Z" fill="#F4C7B1"/>
<path d="M272.554 185.462C272.412 185.499 272.231 185.499 272.091 185.499V185.42C272.231 185.462 272.412 185.462 272.554 185.462ZM283.156 178.876V179.199C283.081 179.28 283.048 179.317 282.978 179.398C282.587 179.88 282.158 180.32 281.732 180.764C281.553 180.925 281.412 181.083 281.236 181.244C281.447 181.006 281.696 180.723 281.913 180.483C282.233 180.122 282.551 179.68 282.905 179.236C282.978 179.119 283.048 179 283.156 178.876Z" fill="#EEBEA7"/>
<path d="M254.907 163.304C252.059 156.962 247.471 144.842 248.29 133.361C248.29 133.319 248.29 133.319 248.29 133.319C247.011 123.808 257.505 106.668 273.515 107.55C289.522 106.668 300.019 123.808 298.737 133.319V133.361C299.232 140.304 297.739 147.448 295.89 153.431C297.064 153.387 298.2 153.549 299.339 153.991C305.709 156.36 308.696 165.712 305.993 174.824C303.326 183.975 295.96 189.432 289.593 187.065C286.639 185.981 284.397 183.373 283.154 179.959V179.199C283.508 178.797 283.903 178.315 284.255 177.835C286.96 174.343 289.345 169.927 291.301 165.029C290.481 166.755 289.983 168.876 289.983 168.876C289.768 167.073 289.236 161.175 288.81 156.559C288.273 150.94 287.812 145.521 287.812 145.521C287.812 154.434 267.003 145.642 256.298 140.545L254.907 163.304Z" fill="#FFBE55"/>
<path d="M283.156 178.876V179.959C283.156 180.723 283.122 181.646 283.156 182.69C282.123 184.134 281.092 185.34 280.025 186.262C279.666 186.583 279.312 186.865 278.958 187.145C278.674 187.385 278.389 187.583 278.103 187.746H278.069C276.433 188.789 274.795 189.311 273.195 189.352H272.375C272.269 189.352 272.164 189.352 272.091 189.311V185.418C272.231 185.459 272.412 185.459 272.554 185.459C272.59 185.497 272.626 185.497 272.66 185.459H272.694C272.875 185.497 273.018 185.497 273.195 185.497C273.409 185.497 273.657 185.459 273.87 185.418C274.118 185.379 274.405 185.339 274.655 185.299C274.795 185.256 274.936 185.256 275.117 185.218C275.26 185.175 275.401 185.175 275.544 185.096C276.291 184.895 277.001 184.574 277.745 184.131C277.962 184.014 278.213 183.854 278.423 183.694C279.204 183.212 279.952 182.567 280.699 181.725C280.808 181.685 280.914 181.564 281.022 181.444C281.092 181.365 281.161 181.284 281.236 181.242C281.447 181.004 281.696 180.721 281.913 180.48C282.233 180.119 282.551 179.678 282.905 179.234C282.978 179.119 283.048 179 283.156 178.876Z" fill="#A5735B"/>
<path d="M272.093 213.275V321.931L288.708 321.13L302.37 320.447L300.98 301.462L299.451 280.226C297.245 281.273 294.754 282.515 292.369 283.721C293.01 275.331 293.294 267.625 292.868 261.322C291.196 237.88 288.6 218.775 286.571 206.292V206.251C286.783 203.843 286.498 201.154 286.002 198.666C285.933 198.14 285.824 197.623 285.718 197.14C285.575 196.577 285.471 196.057 285.328 195.535C285.219 195.132 285.113 194.733 285.005 194.332C284.935 194.051 284.827 193.77 284.759 193.528C284.402 192.203 284.048 191.199 283.831 190.638H283.762C284.047 192.085 285.043 196.901 286.286 204.485C286.286 204.485 286.286 204.485 286.286 204.527C285.472 208.54 282.872 210.788 279.669 212.035C279.635 212.035 279.566 212.072 279.526 212.072C277.324 212.917 274.833 213.236 272.451 213.276C272.344 213.275 272.201 213.316 272.093 213.275Z" fill="#0E538C"/>
<path d="M310.05 247.076C310.905 248.558 312.112 251.288 313.323 254.38C313.147 257.792 312.933 259.836 312.933 259.836C312.933 259.836 311.617 263.73 309.873 269.834C309.408 271.356 304.93 298.33 304.432 300.098C304.324 300.419 304.251 300.78 304.147 301.101C302.511 302.022 302.876 300.415 300.028 301.704C299.178 302.103 298.25 302.505 297.289 302.984C297.147 303.069 296.971 303.147 296.718 303.266C296.434 303.387 296.15 303.508 295.865 303.668C294.051 304.551 292.096 305.516 290.211 306.478C290.849 298.089 293.295 267.626 292.867 261.323C291.196 237.881 288.601 218.776 286.572 206.293V206.252C286.463 205.651 286.396 205.09 286.288 204.527C286.288 204.485 286.288 204.485 286.288 204.485C285.043 196.901 284.047 192.086 283.761 190.638H292.976V190.721C295.536 190.519 307.621 188.6 315.876 197.47C311.321 195.262 305.285 197.26 303.26 198.667C302.402 199.229 301.656 199.87 301.014 200.593C299.947 201.717 299.131 203.002 298.526 204.407C292.621 218.175 307.559 242.818 310.05 247.076Z" fill="#04D98B"/>
<path d="M310.722 331.318H287.826C288.065 328.026 288.369 324.613 288.706 321.132C289.049 317.397 289.458 313.599 289.848 309.781C289.978 308.463 290.113 307.153 290.241 305.839C290.241 305.839 290.249 305.839 290.258 305.83C293.039 304.682 296.695 299.35 300.703 297.564C300.798 297.527 300.886 297.483 300.982 297.446C302.125 297.004 303.261 300.576 304.429 300.098C305.18 309.068 307.86 320.771 310.722 331.318Z" fill="#04D98B"/>
<path d="M272.093 189.314V213.276C272.201 213.318 272.344 213.276 272.452 213.276C274.834 213.236 277.325 212.917 279.527 212.072C279.568 212.072 279.636 212.035 279.67 212.035C282.872 210.788 285.472 208.54 286.287 204.527C286.287 204.485 286.287 204.485 286.287 204.485C285.044 196.901 284.049 192.086 283.763 190.638H283.264V189.877C283.264 189.396 283.227 188.954 283.227 188.511C283.193 187.066 283.193 185.702 283.158 184.376V182.692C282.127 184.136 281.094 185.342 280.028 186.264C279.671 186.626 279.315 186.906 278.963 187.147C278.676 187.388 278.392 187.585 278.108 187.749H278.074C276.328 188.874 274.621 189.354 272.914 189.354C272.628 189.354 272.344 189.354 272.093 189.314Z" fill="#F4C7B1"/>
<path d="M375.408 242.035L376.231 243.688L376.256 243.72L382.684 256.54L383.677 258.514C383.677 258.514 381.729 259.399 378.664 260.863C375.874 262.193 372.17 263.941 368.156 265.902C367.05 266.456 365.947 267.004 364.802 267.549C356.995 271.456 348.777 275.627 344.662 278.297C335.685 284.081 328.215 286.102 323.664 285.996C319.137 285.861 309.208 255.625 307.657 248.372C306.085 241.15 300.276 227.842 296.114 215.17C294.353 209.786 294.862 205.035 296.37 201.263C298.376 196.15 302.158 192.845 304.493 192.317C305.455 192.075 306.39 191.971 307.301 192.007C308.756 192.014 310.129 192.329 311.419 192.892C324.053 198.446 327.965 227.977 328.705 233.007C328.977 234.752 329.736 237.679 330.714 240.874C332.881 248.349 336.036 257.37 336.036 257.37C342.38 254.285 344.999 253.404 347.416 252.622C349.171 252.043 350.826 251.572 353.688 250.33C354.551 249.969 355.474 249.549 356.466 249.166C358.715 248.24 361.289 247.236 363.763 246.292C369.802 244.016 375.408 242.035 375.408 242.035Z" fill="#04D98B"/>
<path d="M273.195 185.42V189.314C273.089 189.354 273.019 189.354 272.911 189.354H272.09C270.488 189.314 268.85 188.791 267.214 187.749H267.18C266.896 187.585 266.612 187.387 266.325 187.147C265.972 186.868 265.619 186.586 265.26 186.264C264.193 185.342 263.16 184.135 262.129 182.692C262.163 181.127 262.129 179.801 262.129 178.878C262.556 179.443 262.949 180.006 263.372 180.485C264.547 181.851 265.687 182.937 266.86 183.698C267.074 183.859 267.323 184.02 267.537 184.136C268.286 184.578 268.996 184.9 269.741 185.101C269.883 185.18 270.026 185.18 270.167 185.223C270.35 185.261 270.488 185.261 270.63 185.304C270.881 185.343 271.165 185.384 271.416 185.422C271.662 185.464 271.878 185.501 272.09 185.501C272.23 185.501 272.411 185.501 272.553 185.464C272.589 185.501 272.625 185.501 272.659 185.464H272.693C272.836 185.462 273.018 185.462 273.195 185.42Z" fill="#A5735B"/>
<path d="M273.195 213.275V321.931L256.58 321.13L242.919 320.447L244.307 301.462L245.836 280.226C248.042 281.273 250.533 282.515 252.918 283.721C252.275 275.331 251.995 267.625 252.42 261.322C254.091 237.88 256.686 218.775 258.714 206.292V206.251C258.504 203.843 258.789 201.154 259.285 198.666C259.354 198.14 259.463 197.623 259.571 197.14C259.714 196.577 259.816 196.057 259.959 195.535C260.068 195.132 260.174 194.733 260.282 194.332C260.352 194.051 260.46 193.77 260.53 193.528C260.889 192.203 261.241 191.199 261.456 190.638H261.525C261.241 192.085 260.243 196.901 259 204.485C259 204.485 259 204.485 259 204.527C259.816 208.54 262.416 210.788 265.62 212.035C265.654 212.035 265.724 212.072 265.762 212.072C267.964 212.917 270.457 213.236 272.837 213.276C272.943 213.275 273.089 213.316 273.195 213.275Z" fill="#0E538C"/>
<path d="M261.524 190.637C261.24 192.084 260.242 196.9 258.999 204.484C258.999 204.484 258.999 204.484 258.999 204.526C258.893 205.088 258.821 205.65 258.714 206.251V206.292C256.686 218.775 254.091 237.88 252.42 261.322C251.994 267.624 252.275 275.332 252.918 283.721C250.533 282.515 248.042 281.273 245.836 280.226C244.877 279.744 243.949 279.345 243.099 278.945C240.249 277.659 238.755 276.735 237.12 275.811C237.016 275.491 236.942 275.132 236.835 274.81C236.337 273.044 235.876 271.357 235.414 269.835C233.669 263.732 232.354 259.837 232.354 259.837C232.354 259.837 232.142 257.793 231.964 254.381C233.173 251.288 234.383 248.559 235.238 247.078C237.726 242.819 252.666 218.176 246.76 204.408C246.156 203.003 245.339 201.718 244.272 200.594C243.631 199.871 242.882 199.23 242.028 198.668C240.005 197.262 232.026 198.853 227.473 201.061C235.727 192.187 249.752 190.52 252.313 190.722V190.639H261.524V190.637ZM257.459 331.318H234.562C235.25 328.784 235.929 326.185 236.562 323.576C238.601 315.311 240.288 306.919 240.856 300.098C242.023 300.577 243.168 301.019 244.311 301.46C248.437 303.102 252.205 304.673 255.044 305.839C255.3 308.471 255.579 311.115 255.852 313.733C256.1 316.221 256.354 318.694 256.579 321.131C256.916 324.613 257.219 328.026 257.459 331.318Z" fill="#04D98B"/>
<path d="M273.195 189.314V213.276C273.089 213.318 272.944 213.276 272.836 213.276C270.456 213.236 267.963 212.917 265.761 212.072C265.724 212.072 265.654 212.035 265.619 212.035C262.415 210.788 259.815 208.54 258.999 204.527C258.999 204.485 258.999 204.485 258.999 204.485C260.242 196.901 261.241 192.086 261.524 190.638H262.023V189.877C262.023 189.396 262.06 188.954 262.06 188.511C262.094 187.066 262.094 185.702 262.129 184.376V182.692C263.16 184.136 264.193 185.342 265.26 186.264C265.619 186.626 265.973 186.906 266.325 187.147C266.612 187.388 266.896 187.585 267.18 187.749H267.214C268.958 188.874 270.671 189.354 272.374 189.354C272.66 189.354 272.943 189.354 273.195 189.314Z" fill="#F4C7B1"/>
<path d="M283.012 295.562C282.763 297.327 281.732 298.652 281.732 298.652C281.732 298.652 282.336 300.978 280.95 302.504C280.95 302.504 281.412 304.711 279.598 306.156C279.598 306.156 280.025 308.324 278.6 309.248C278.6 309.248 275.504 309.691 274.37 309.45C272.944 309.088 266.292 307.363 260.602 305.756L263.625 291.425V291.387C264.942 290.384 266.185 289.458 266.578 289.178C267.539 288.534 270.813 288.737 274.188 289.939C277.465 291.105 281.129 292.75 282.159 293.392C282.694 293.713 283.224 293.836 283.012 295.562Z" fill="#EEA886"/>
<path d="M264.017 289.539L263.624 291.387V291.425L260.601 305.756L260.139 307.966C260.139 307.966 258.18 307.123 255.046 305.837C252.202 304.672 248.434 303.108 244.307 301.463C243.168 301.02 242.027 300.578 240.858 300.099C232.781 296.965 224.241 293.714 219.616 292.511C209.548 289.86 202.857 285.607 199.585 282.036C196.35 278.464 207.306 248.681 210.546 242.178C213.748 235.674 217.515 221.466 222.107 208.984C224.063 203.683 227.298 200.594 230.68 198.99C235.236 196.781 240.003 197.261 242.026 198.667C242.881 199.229 243.63 199.87 244.27 200.593C245.337 201.717 246.154 203.002 246.758 204.407C252.664 218.175 237.724 242.818 235.236 247.076C234.381 248.558 233.171 251.288 231.962 254.38C229.045 261.522 225.914 270.553 225.914 270.553C232.423 273.165 234.877 274.527 237.118 275.81C238.753 276.734 240.247 277.658 243.097 278.944C243.947 279.344 244.875 279.743 245.834 280.225C248.04 281.272 250.531 282.514 252.916 283.72C258.713 286.69 264.017 289.539 264.017 289.539Z" fill="#04D98B"/>
<path d="M297.537 153.645L297.231 137.917C297.186 135.292 297.231 132.693 296.899 130.259C296.571 127.79 295.977 125.374 295.057 123.136C293.249 118.651 290.215 114.866 286.405 112.465C282.599 110.027 278.172 108.919 273.757 108.939C269.343 108.919 264.907 110.027 261.116 112.465C257.298 114.866 254.265 118.651 252.451 123.136C251.537 125.372 250.944 127.79 250.615 130.259C250.284 132.719 250.317 135.258 250.286 137.917L249.974 153.645H248.227L247.928 137.917C247.9 135.337 247.795 132.622 248.103 129.879C248.407 127.162 248.998 124.452 249.975 121.903C251.867 116.762 255.402 112.403 259.679 109.647C263.962 106.847 268.907 105.586 273.758 105.558C278.612 105.586 283.552 106.847 287.834 109.647C292.114 112.403 295.644 116.762 297.533 121.903C298.509 124.452 299.107 127.162 299.417 129.879C299.721 132.643 299.62 135.311 299.593 137.917L299.29 153.645H297.537Z" fill="#0E538C"/>
<path d="M249.623 162.184C246.486 162.184 245.695 159.647 245.695 156.513V146.343C245.695 143.213 246.486 140.669 249.623 140.669H250.373V162.184H249.623Z" fill="#0B4870"/>
<path d="M251.994 140.671H250.373V162.186H251.994V140.671Z" fill="#2A94F4"/>
<path d="M298.368 162.184C301.508 162.184 302.305 159.647 302.305 156.513V146.343C302.305 143.213 301.508 140.669 298.368 140.669H297.618V162.184H298.368Z" fill="#0B4870"/>
<path d="M297.618 140.671H295.996V162.186H297.618V140.671Z" fill="#2A94F4"/>
<path d="M274.92 181.79V179.817C282.156 179.817 295.937 168.215 295.937 162.184H297.682C297.682 169.818 282.438 181.79 274.92 181.79Z" fill="#CCE9FF"/>
<path d="M276.082 183.559H273.752C271.819 183.559 270.255 182.33 270.255 180.803C270.255 179.282 271.819 178.053 273.752 178.053H276.082C278.013 178.053 279.578 179.283 279.578 180.803C279.577 182.33 278.013 183.559 276.082 183.559Z" fill="#0B4870"/>
<path d="M212.523 75.4581V91.0428L212.44 112.199L212.329 137.752L212.259 156.603L195.614 137.68L190.535 137.659L123.182 137.304C111.803 134.799 103.216 123.501 103.216 109.954V75.4581C103.216 61.1483 112.806 49.3297 125.124 47.7738L192.636 48.1247C203.97 50.6486 212.523 61.9256 212.523 75.4581Z" fill="#04D98B"/>
<path opacity="0.8" d="M191.526 76.2061C191.526 78.4705 189.902 80.3017 187.902 80.3017H125.817C123.814 80.3017 122.189 78.4705 122.189 76.2061C122.189 73.9451 123.814 72.1139 125.817 72.1139H187.902C189.902 72.1139 191.526 73.9451 191.526 76.2061ZM191.526 91.4467C191.526 93.701 189.902 95.5435 187.902 95.5435H125.817C123.814 95.5435 122.189 93.701 122.189 91.4467C122.189 89.1834 123.814 87.3511 125.817 87.3511H187.902C189.902 87.35 191.526 89.1834 191.526 91.4467ZM172.559 106.686C172.559 108.931 170.929 110.771 168.925 110.771H125.813C123.81 110.771 122.197 108.931 122.197 106.686C122.197 105.555 122.592 104.537 123.252 103.793C123.905 103.051 124.813 102.584 125.813 102.584H168.925C170.929 102.584 172.559 104.422 172.559 106.686Z" fill="#CCE9FF"/>
</g>
</g>
<defs>
<clipPath id="clip0_15_21">
<rect width="535" height="397" fill="white"/>
</clipPath>
<clipPath id="clip1_15_21">
<rect width="500" height="475" fill="white" transform="translate(17.5 -39)"/>
</clipPath>
</defs>
</svg>
