<svg width="51" height="50" viewBox="0 0 51 50" fill="none" xmlns="http://www.w3.org/2000/svg">
<path fill-rule="evenodd" clip-rule="evenodd" d="M16.0521 2.22075C18.4958 2.10825 19.275 2.08325 25.5 2.08325C31.725 2.08325 32.5042 2.11034 34.9458 2.22075C37.3875 2.33117 39.0542 2.72075 40.5125 3.28534C42.0396 3.86242 43.425 4.7645 44.5708 5.93117C45.7375 7.07492 46.6375 8.45825 47.2125 9.98742C47.7792 11.4458 48.1667 13.1124 48.2792 15.5499C48.3917 17.9978 48.4167 18.777 48.4167 24.9999C48.4167 31.2249 48.3896 32.0041 48.2792 34.4478C48.1688 36.8853 47.7792 38.552 47.2125 40.0103C46.6375 41.5397 45.736 42.9253 44.5708 44.0707C43.425 45.2374 42.0396 46.1374 40.5125 46.7124C39.0542 47.2791 37.3875 47.6666 34.95 47.7791C32.5042 47.8916 31.725 47.9166 25.5 47.9166C19.275 47.9166 18.4958 47.8895 16.0521 47.7791C13.6146 47.6687 11.9479 47.2791 10.4896 46.7124C8.96025 46.1373 7.57463 45.2359 6.42917 44.0707C5.26329 42.9263 4.36107 41.5413 3.78542 40.0124C3.22084 38.5541 2.83334 36.8874 2.72084 34.4499C2.60834 32.002 2.58334 31.2228 2.58334 24.9999C2.58334 18.7749 2.61042 17.9958 2.72084 15.5541C2.83125 13.1124 3.22084 11.4458 3.78542 9.98742C4.36193 8.45842 5.26483 7.07349 6.43125 5.92909C7.57509 4.76346 8.95932 3.86126 10.4875 3.28534C11.9458 2.72075 13.6125 2.33325 16.05 2.22075H16.0521ZM34.7604 6.34575C32.3438 6.23534 31.6188 6.21242 25.5 6.21242C19.3813 6.21242 18.6563 6.23534 16.2396 6.34575C14.0042 6.44783 12.7917 6.82075 11.9833 7.13533C10.9146 7.552 10.15 8.04575 9.34792 8.84784C8.5876 9.58753 8.00246 10.488 7.63542 11.4833C7.32084 12.2916 6.94792 13.5041 6.84584 15.7395C6.73542 18.1562 6.7125 18.8812 6.7125 24.9999C6.7125 31.1187 6.73542 31.8437 6.84584 34.2603C6.94792 36.4958 7.32084 37.7083 7.63542 38.5166C8.00209 39.5103 8.5875 40.4124 9.34792 41.152C10.0875 41.9124 10.9896 42.4978 11.9833 42.8645C12.7917 43.1791 14.0042 43.552 16.2396 43.6541C18.6563 43.7645 19.3792 43.7874 25.5 43.7874C31.6208 43.7874 32.3438 43.7645 34.7604 43.6541C36.9958 43.552 38.2083 43.1791 39.0167 42.8645C40.0854 42.4478 40.85 41.9541 41.6521 41.152C42.4125 40.4124 42.9979 39.5103 43.3646 38.5166C43.6792 37.7083 44.0521 36.4958 44.1542 34.2603C44.2646 31.8437 44.2875 31.1187 44.2875 24.9999C44.2875 18.8812 44.2646 18.1562 44.1542 15.7395C44.0521 13.5041 43.6792 12.2916 43.3646 11.4833C42.9479 10.4145 42.4542 9.64992 41.6521 8.84784C40.9123 8.08757 40.0119 7.50244 39.0167 7.13533C38.2083 6.82075 36.9958 6.44783 34.7604 6.34575ZM22.5729 32.0645C24.2076 32.745 26.0279 32.8368 27.7228 32.3243C29.4177 31.8118 30.8821 30.7268 31.8659 29.2546C32.8496 27.7824 33.2918 26.0142 33.1168 24.2522C32.9417 22.4902 32.1604 20.8436 30.9063 19.5937C30.1067 18.7947 29.14 18.1829 28.0757 17.8023C27.0114 17.4218 25.8759 17.2819 24.751 17.3929C23.6262 17.5038 22.5399 17.8628 21.5704 18.4439C20.601 19.0251 19.7724 19.814 19.1444 20.7538C18.5164 21.6936 18.1046 22.7609 17.9386 23.879C17.7726 24.9971 17.8566 26.138 18.1845 27.2197C18.5124 28.3015 19.076 29.297 19.8348 30.1348C20.5937 30.9725 21.5288 31.6316 22.5729 32.0645ZM17.1708 16.6708C18.2646 15.5769 19.5632 14.7093 20.9923 14.1173C22.4214 13.5254 23.9531 13.2207 25.5 13.2207C27.0469 13.2207 28.5786 13.5254 30.0077 14.1173C31.4368 14.7093 32.7354 15.5769 33.8292 16.6708C34.923 17.7646 35.7906 19.0631 36.3826 20.4922C36.9745 21.9213 37.2792 23.453 37.2792 24.9999C37.2792 26.5468 36.9745 28.0785 36.3826 29.5076C35.7906 30.9368 34.923 32.2353 33.8292 33.3291C31.6201 35.5381 28.624 36.7791 25.5 36.7791C22.376 36.7791 19.3799 35.5381 17.1708 33.3291C14.9618 31.1201 13.7208 28.124 13.7208 24.9999C13.7208 21.8759 14.9618 18.8798 17.1708 16.6708ZM39.8917 14.9749C40.1627 14.7192 40.3797 14.4118 40.5298 14.0707C40.6799 13.7296 40.76 13.3619 40.7655 12.9894C40.7709 12.6168 40.7015 12.2469 40.5614 11.9016C40.4213 11.5563 40.2134 11.2426 39.9499 10.9792C39.6864 10.7157 39.3728 10.5077 39.0275 10.3677C38.6822 10.2276 38.3123 10.1582 37.9397 10.1636C37.5672 10.1691 37.1994 10.2492 36.8584 10.3993C36.5173 10.5494 36.2099 10.7664 35.9542 11.0374C35.4569 11.5646 35.1847 12.2648 35.1952 12.9894C35.2058 13.714 35.4983 14.4059 36.0107 14.9183C36.5232 15.4308 37.2151 15.7233 37.9397 15.7339C38.6643 15.7444 39.3645 15.4722 39.8917 14.9749Z" fill="white"/>
</svg>
