<svg width="32" height="32" viewBox="0 0 32 32" fill="none" xmlns="http://www.w3.org/2000/svg">
<path d="M28 12H30V15H28V12Z" fill="black"/>
<path d="M24 7H26V20H24V7Z" fill="black"/>
<path d="M20 11H22V16H20V11Z" fill="black"/>
<path d="M16 9H18V18H16V9Z" fill="black"/>
<path d="M12 12H14V15H12V12Z" fill="black"/>
<path d="M13.5 26C14.3284 26 15 25.3284 15 24.5C15 23.6716 14.3284 23 13.5 23C12.6716 23 12 23.6716 12 24.5C12 25.3284 12.6716 26 13.5 26Z" fill="black"/>
<path d="M20 30H7C6.46973 29.9995 5.96133 29.7886 5.58637 29.4136C5.21141 29.0387 5.00053 28.5303 5 28V4C5.00053 3.46973 5.21141 2.96133 5.58637 2.58637C5.96133 2.21141 6.46973 2.00053 7 2H20V4H7V28H20V24H22V28C21.9995 28.5303 21.7886 29.0387 21.4136 29.4136C21.0387 29.7886 20.5303 29.9995 20 30Z" fill="black"/>
</svg>
