<svg width="32" height="32" viewBox="0 0 32 32" fill="none" xmlns="http://www.w3.org/2000/svg">
<path d="M23 7H27V11H23V7Z" fill="black"/>
<path d="M23 13H27V17H23V13Z" fill="black"/>
<path d="M17 7H21V11H17V7Z" fill="black"/>
<path d="M17 13H21V17H17V13Z" fill="black"/>
<path d="M14.5 26C15.3284 26 16 25.3284 16 24.5C16 23.6716 15.3284 23 14.5 23C13.6716 23 13 23.6716 13 24.5C13 25.3284 13.6716 26 14.5 26Z" fill="black"/>
<path d="M21 30H8C7.46973 29.9995 6.96133 29.7886 6.58637 29.4136C6.21141 29.0387 6.00053 28.5303 6 28V4C6.00053 3.46973 6.21141 2.96133 6.58637 2.58637C6.96133 2.21141 7.46973 2.00053 8 2H21V4H8V28H21V20H23V28C22.9995 28.5303 22.7886 29.0387 22.4136 29.4136C22.0387 29.7886 21.5303 29.9995 21 30Z" fill="black"/>
</svg>
