<svg width="16" height="16" viewBox="0 0 16 16" fill="none" xmlns="http://www.w3.org/2000/svg">
<path d="M2.225 0.810985C2.0364 0.628827 1.7838 0.528033 1.5216 0.530311C1.25941 0.53259 1.00859 0.637759 0.823185 0.823167C0.637776 1.00858 0.532607 1.25939 0.530329 1.52158C0.52805 1.78378 0.628845 2.03638 0.811003 2.22499L6.586 7.99999L0.810003 13.775C0.714493 13.8672 0.63831 13.9776 0.585901 14.0996C0.533492 14.2216 0.505907 14.3528 0.504753 14.4856C0.503599 14.6184 0.5289 14.75 0.579181 14.8729C0.629462 14.9958 0.703715 15.1075 0.797608 15.2014C0.891501 15.2953 1.00315 15.3695 1.12605 15.4198C1.24895 15.4701 1.38062 15.4954 1.5134 15.4942C1.64618 15.4931 1.7774 15.4655 1.89941 15.4131C2.02141 15.3607 2.13176 15.2845 2.224 15.189L8 9.41399L13.775 15.189C13.9636 15.3711 14.2162 15.4719 14.4784 15.4697C14.7406 15.4674 14.9914 15.3622 15.1768 15.1768C15.3622 14.9914 15.4674 14.7406 15.4697 14.4784C15.472 14.2162 15.3712 13.9636 15.189 13.775L9.414 7.99999L15.189 2.22499C15.3712 2.03638 15.472 1.78378 15.4697 1.52158C15.4674 1.25939 15.3622 1.00858 15.1768 0.823167C14.9914 0.637759 14.7406 0.53259 14.4784 0.530311C14.2162 0.528033 13.9636 0.628827 13.775 0.810985L8 6.58599L2.225 0.809985V0.810985Z" fill="black"/>
</svg>
